<svg width="50" height="56" viewBox="0 0 50 56" fill="none" xmlns="http://www.w3.org/2000/svg" xmlns:xlink="http://www.w3.org/1999/xlink">
<path d="M6,18.667C6,8.726 14.059,0.667 24,0.667C33.941,0.667 42,8.726 42,18.667L42,23.295C42,25.079 42.549,26.82 43.572,28.282L46.861,32.98C49.673,36.997 47.775,42.589 43.099,44.066L40.122,45.006C29.629,48.32 18.37,48.32 7.878,45.006L4.9,44.066C0.224,42.589 -1.673,36.997 1.139,32.98L4.428,28.282C5.451,26.82 6,25.079 6,23.295L6,18.667ZM24,55.333C19.945,55.333 16.453,52.92 14.884,49.451C20.871,50.865 27.127,50.862 33.126,49.428C31.561,52.909 28.064,55.333 24,55.333Z" fill="#FFFFFF"/>
</svg>
