<svg width="50" height="52" viewBox="0 0 50 52" fill="none" xmlns="http://www.w3.org/2000/svg" xmlns:xlink="http://www.w3.org/1999/xlink">
<path d="M42.575,28.438C42.675,27.638 42.75,26.825 42.75,26C42.75,25.175 42.675,24.362 42.575,23.562L47.863,19.425C48.338,19.05 48.475,18.375 48.163,17.825L43.163,9.163C42.85,8.625 42.2,8.4 41.638,8.625L35.413,11.138C34.125,10.15 32.713,9.313 31.188,8.675L30.25,2.05C30.138,1.462 29.625,1 29,1L19,1C18.375,1 17.862,1.462 17.762,2.05L16.825,8.675C15.314,9.305 13.893,10.133 12.6,11.138L6.375,8.625C6.098,8.519 5.793,8.516 5.514,8.614C5.235,8.712 4.999,8.907 4.85,9.163L-0.15,17.825C-0.463,18.362 -0.325,19.038 0.15,19.425L5.425,23.562C5.325,24.362 5.25,25.175 5.25,26C5.25,26.825 5.325,27.638 5.425,28.438L0.15,32.575C-0.325,32.95 -0.463,33.625 -0.15,34.175L4.85,42.838C5.162,43.375 5.812,43.6 6.375,43.375L12.6,40.862C13.887,41.85 15.3,42.688 16.825,43.325L17.762,49.95C17.862,50.537 18.375,51 19,51L29,51C29.625,51 30.138,50.537 30.238,49.95L31.175,43.325C32.686,42.695 34.107,41.867 35.4,40.862L41.625,43.375C41.902,43.481 42.207,43.484 42.486,43.386C42.765,43.288 43.001,43.093 43.15,42.838L48.15,34.175C48.463,33.638 48.325,32.962 47.85,32.575L42.575,28.438ZM24,34.75C19.162,34.75 15.25,30.837 15.25,26C15.25,21.163 19.162,17.25 24,17.25C28.838,17.25 32.75,21.163 32.75,26C32.75,30.837 28.838,34.75 24,34.75Z" fill="#FFFFFF"/>
</svg>
