<svg width="50" height="50" viewBox="0 0 50 50" fill="none" xmlns="http://www.w3.org/2000/svg" xmlns:xlink="http://www.w3.org/1999/xlink">
<path d="M24.333,49.333C20.875,49.333 17.625,48.677 14.583,47.363C11.542,46.05 8.896,44.269 6.646,42.021C4.396,39.771 2.615,37.125 1.303,34.083C-0.008,31.042 -0.665,27.792 -0.667,24.333C-0.667,20.875 -0.01,17.625 1.303,14.583C2.617,11.542 4.397,8.896 6.646,6.646C8.896,4.396 11.542,2.615 14.583,1.303C17.625,-0.008 20.875,-0.665 24.333,-0.667C27.792,-0.667 31.042,-0.01 34.083,1.303C37.125,2.617 39.771,4.397 42.021,6.646C44.271,8.896 46.053,11.542 47.366,14.583C48.679,17.625 49.335,20.875 49.333,24.333C49.333,27.792 48.677,31.042 47.363,34.083C46.05,37.125 44.269,39.771 42.021,42.021C39.771,44.271 37.125,46.053 34.083,47.366C31.042,48.679 27.792,49.335 24.333,49.333ZM24.333,44.333C29.917,44.333 34.646,42.396 38.521,38.521C42.396,34.646 44.333,29.917 44.333,24.333C44.333,24.042 44.323,23.739 44.303,23.426C44.283,23.113 44.273,22.853 44.271,22.646C44.063,23.854 43.5,24.854 42.583,25.646C41.667,26.438 40.583,26.833 39.333,26.833L34.333,26.833C32.958,26.833 31.782,26.344 30.803,25.366C29.825,24.388 29.335,23.21 29.333,21.833L29.333,19.333L19.333,19.333L19.333,14.333C19.333,12.958 19.823,11.782 20.803,10.803C21.783,9.825 22.96,9.335 24.333,9.333L26.833,9.333C26.833,8.375 27.094,7.532 27.616,6.803C28.138,6.075 28.773,5.481 29.521,5.021C28.688,4.812 27.844,4.646 26.991,4.521C26.138,4.396 25.252,4.333 24.333,4.333C18.75,4.333 14.021,6.271 10.146,10.146C6.271,14.021 4.333,18.75 4.333,24.333L16.833,24.333C19.583,24.333 21.938,25.313 23.896,27.271C25.854,29.229 26.833,31.583 26.833,34.333L26.833,36.833L19.333,36.833L19.333,43.708C20.167,43.917 20.99,44.073 21.803,44.178C22.617,44.283 23.46,44.335 24.333,44.333Z" fill="#FFFFFF"/>
</svg>
