<svg width="48" height="48" viewBox="0 0 48 48" fill="none" xmlns="http://www.w3.org/2000/svg" xmlns:xlink="http://www.w3.org/1999/xlink">
<path d="M23,-0.167C26.094,-0.167 29.062,1.062 31.25,3.25C33.437,5.438 34.667,8.406 34.667,11.5C34.667,14.594 33.437,17.562 31.25,19.75C29.062,21.938 26.094,23.167 23,23.167C19.906,23.167 16.938,21.938 14.75,19.75C12.563,17.562 11.333,14.594 11.333,11.5C11.333,8.406 12.563,5.438 14.75,3.25C16.938,1.062 19.906,-0.167 23,-0.167ZM23,29C35.892,29 46.333,34.221 46.333,40.667L46.333,46.5L-0.333,46.5L-0.333,40.667C-0.333,34.221 10.108,29 23,29Z" fill="#FFFFFF"/>
</svg>
