<svg width="70" height="72" viewBox="0 0 70 72" fill="none" xmlns="http://www.w3.org/2000/svg" xmlns:xlink="http://www.w3.org/1999/xlink">
<path d="M9.907,51.476C9.896,51.401 9.871,51.329 9.832,51.264C9.793,51.199 9.742,51.142 9.681,51.097C9.62,51.051 9.551,51.019 9.478,51C9.405,50.982 9.328,50.978 9.253,50.989C9.102,51.011 8.966,51.092 8.875,51.214C8.783,51.337 8.744,51.49 8.766,51.641C8.777,51.716 8.803,51.788 8.841,51.853C8.88,51.918 8.932,51.975 8.992,52.02C9.053,52.066 9.122,52.098 9.196,52.117C9.269,52.135 9.345,52.139 9.42,52.128C9.571,52.106 9.708,52.025 9.799,51.903C9.89,51.78 9.929,51.627 9.907,51.476ZM55.232,38.199C55.232,38.865 54.679,39.418 54.014,39.418L48.668,39.418C48.002,39.418 47.449,38.865 47.449,38.199L47.449,32.852C47.449,32.186 48.002,31.635 48.668,31.635L54.014,31.635C54.679,31.635 55.232,32.186 55.232,32.852L55.232,38.199ZM54.013,24.421L48.668,24.421C48.002,24.421 47.449,23.868 47.449,23.203L47.449,17.855C47.449,17.19 48.002,16.638 48.668,16.638L54.013,16.638C54.679,16.638 55.232,17.19 55.232,17.855L55.232,23.203C55.232,23.868 54.679,24.421 54.013,24.421ZM48.668,9.424C48.002,9.424 47.449,8.872 47.449,8.206L47.449,2.859C47.449,2.194 48.003,1.642 48.668,1.642L54.013,1.642C54.678,1.642 55.232,2.194 55.232,2.859L55.232,8.206C55.232,8.872 54.679,9.424 54.013,9.424L48.668,9.424ZM20.251,64.935C20.548,65.46 20.359,66.141 19.834,66.438L16.689,68.219C16.435,68.362 16.134,68.399 15.852,68.321C15.712,68.282 15.581,68.217 15.467,68.128C15.353,68.039 15.257,67.928 15.185,67.802L5.938,51.462C5.867,51.336 5.821,51.197 5.803,51.053C5.786,50.91 5.797,50.764 5.836,50.624C5.914,50.341 6.097,50.102 6.353,49.956L9.499,48.177C9.663,48.084 9.849,48.036 10.038,48.036C10.139,48.036 10.241,48.05 10.338,48.077C10.62,48.154 10.859,48.34 11.003,48.594L20.251,64.935Z" clip-rule="evenodd" fill-rule="evenodd" fill="#F4F2ED"/>
<path d="M19.201,24.087C19.131,23.806 19.175,23.508 19.324,23.259C19.473,23.011 19.715,22.831 19.996,22.761C20.583,22.616 21.177,22.972 21.323,23.558C21.686,25.016 23.187,25.502 24.356,25.474C25.377,25.449 26.329,25.096 26.782,24.574C27.032,24.284 27.125,23.95 27.073,23.524C26.988,22.816 26.567,21.95 24.055,21.537C20.485,20.951 19.651,19.101 19.581,17.652C19.484,15.648 20.874,13.97 23.044,13.478C23.071,13.471 23.1,13.465 23.127,13.46L23.127,12.692C23.127,12.548 23.156,12.406 23.211,12.273C23.265,12.14 23.346,12.02 23.448,11.918C23.549,11.816 23.67,11.736 23.803,11.681C23.935,11.626 24.078,11.598 24.221,11.598C24.365,11.598 24.507,11.626 24.64,11.681C24.773,11.736 24.893,11.816 24.995,11.918C25.096,12.02 25.177,12.14 25.232,12.273C25.287,12.406 25.315,12.548 25.315,12.692L25.315,13.45C26.759,13.736 28.147,14.625 28.864,16.329C29.097,16.886 28.835,17.527 28.279,17.761C28.011,17.874 27.71,17.875 27.441,17.765C27.172,17.655 26.958,17.443 26.846,17.176C26.233,15.715 24.738,15.335 23.528,15.61C22.64,15.813 21.711,16.427 21.766,17.547C21.784,17.932 21.834,18.956 24.409,19.378C27.364,19.864 28.991,21.169 29.245,23.26C29.371,24.298 29.091,25.247 28.436,26.004C27.733,26.816 26.605,27.378 25.315,27.58L25.315,28.313C25.315,28.457 25.287,28.599 25.232,28.732C25.177,28.864 25.096,28.985 24.995,29.087C24.893,29.188 24.773,29.269 24.64,29.324C24.507,29.379 24.365,29.407 24.221,29.407C24.078,29.407 23.935,29.379 23.803,29.324C23.67,29.269 23.549,29.188 23.448,29.087C23.346,28.985 23.265,28.864 23.211,28.732C23.156,28.599 23.127,28.457 23.127,28.313L23.127,27.562C21.165,27.204 19.653,25.907 19.201,24.087ZM24.221,9.253C18.018,9.253 12.971,14.3 12.971,20.503C12.971,26.705 18.018,31.752 24.221,31.752C30.424,31.752 35.47,26.705 35.47,20.503C35.47,14.3 30.424,9.253 24.221,9.253ZM47.996,2.859C47.996,2.496 48.304,2.189 48.668,2.189L54.013,2.189C54.377,2.189 54.685,2.496 54.685,2.859L54.685,8.206C54.685,8.569 54.377,8.877 54.013,8.877L48.668,8.877C48.304,8.877 47.996,8.569 47.996,8.206L47.996,2.859ZM47.996,17.856C47.996,17.492 48.304,17.185 48.668,17.185L54.013,17.185C54.377,17.185 54.685,17.492 54.685,17.856L54.685,23.203C54.685,23.567 54.377,23.874 54.013,23.874L48.668,23.874C48.304,23.874 47.996,23.566 47.996,23.203L47.996,17.856ZM47.996,32.852C47.996,32.488 48.304,32.182 48.668,32.182L54.013,32.182C54.377,32.182 54.685,32.488 54.685,32.852L54.685,38.199C54.685,38.563 54.377,38.871 54.013,38.871L48.668,38.871C48.304,38.871 47.996,38.563 47.996,38.199L47.996,32.852ZM24.221,33.939C31.267,33.939 37.063,28.488 37.615,21.582L40.276,21.592L40.276,35.526C40.276,35.816 40.391,36.095 40.596,36.3C40.802,36.505 41.08,36.62 41.37,36.62L45.809,36.62L45.809,38.199C45.809,39.776 47.091,41.058 48.668,41.058L54.013,41.058C55.59,41.058 56.872,39.776 56.872,38.199L56.872,32.852C56.872,31.277 55.59,29.995 54.013,29.995L48.668,29.995C47.091,29.995 45.809,31.277 45.809,32.852L45.809,34.432L42.463,34.432L42.463,21.599L45.809,21.611L45.809,23.203C45.809,24.779 47.091,26.061 48.668,26.061L54.013,26.061C55.59,26.061 56.872,24.779 56.872,23.203L56.872,17.856C56.872,16.28 55.59,14.998 54.013,14.998L48.668,14.998C47.091,14.998 45.809,16.28 45.809,17.856L45.809,19.424L42.463,19.411L42.463,6.627L45.809,6.627L45.809,8.206C45.809,9.782 47.091,11.065 48.668,11.065L54.013,11.065C55.59,11.065 56.872,9.782 56.872,8.206L56.872,2.859C56.872,1.284 55.59,0.002 54.013,0.002L48.668,0.002C47.091,0.002 45.809,1.284 45.809,2.859L45.809,4.439L41.37,4.439C41.226,4.439 41.084,4.467 40.951,4.522C40.819,4.577 40.698,4.658 40.596,4.759C40.495,4.861 40.414,4.981 40.359,5.114C40.304,5.247 40.276,5.389 40.276,5.533L40.276,19.404L37.613,19.395C37.046,12.501 31.258,7.066 24.221,7.066C16.813,7.066 10.784,13.094 10.784,20.503C10.784,27.911 16.813,33.939 24.221,33.939ZM10.448,51.397C10.536,52.01 10.113,52.58 9.499,52.669C8.885,52.76 8.315,52.335 8.225,51.721C8.136,51.108 8.56,50.538 9.174,50.448C9.788,50.358 10.358,50.783 10.448,51.397ZM62.786,49.641L42.44,62.169C40.851,63.148 39.105,63.393 37.255,62.896L22.498,58.942C22.218,58.867 21.919,58.907 21.668,59.052L19.511,60.297L14.063,50.668L22.334,45.876C24.182,44.805 26.181,43.908 28.268,44.584C28.947,44.804 29.732,45.089 30.641,45.416C33.25,46.36 36.492,47.532 39.857,48.148C40.976,48.542 41.601,49.62 41.314,50.683C40.97,51.973 39.945,52.221 39.056,52.17C37.227,51.812 35.579,51.345 33.854,50.855C33.109,50.645 32.338,50.426 31.527,50.209C30.944,50.053 30.344,50.399 30.188,50.983C30.031,51.564 30.379,52.165 30.96,52.322C31.756,52.535 32.519,52.752 33.257,52.961C34.902,53.427 36.479,53.874 38.225,54.234C38.317,54.275 38.42,54.303 38.527,54.315C38.606,54.325 38.686,54.333 38.765,54.341C39.127,54.41 39.499,54.475 39.88,54.537C41.989,54.873 43.859,54.546 45.601,53.531L56.812,47.001C59.986,45.153 62.42,44.949 63.322,46.456C63.941,47.489 63.67,49.097 62.786,49.641ZM19.564,65.962C19.828,65.813 19.924,65.466 19.775,65.204L10.527,48.863C10.43,48.691 10.274,48.626 10.191,48.603C10.141,48.59 10.09,48.583 10.038,48.583C9.959,48.583 9.865,48.599 9.768,48.653L6.623,50.432C6.45,50.531 6.386,50.686 6.363,50.77C6.343,50.841 6.337,50.914 6.346,50.987C6.354,51.059 6.378,51.129 6.414,51.193L15.661,67.532C15.758,67.704 15.913,67.77 15.997,67.793C16.081,67.817 16.246,67.84 16.42,67.742L19.564,65.962ZM65.199,45.332C64.601,44.333 62.147,41.363 55.711,45.112L44.5,51.641C44.019,51.922 43.531,52.129 43.025,52.269C43.199,51.946 43.335,51.604 43.428,51.249C44.015,49.058 42.715,46.772 40.469,46.045C40.422,46.03 40.375,46.018 40.326,46.01C37.112,45.43 33.936,44.281 31.385,43.359C30.496,43.038 29.657,42.734 28.942,42.503C26.033,41.559 23.415,42.722 21.238,43.983L12.986,48.764L12.432,47.786C12.255,47.472 12.017,47.196 11.733,46.975C11.449,46.753 11.123,46.59 10.776,46.495C10.068,46.3 9.327,46.389 8.691,46.749L5.545,48.53C4.909,48.889 4.452,49.478 4.255,50.185C4.059,50.894 4.149,51.633 4.509,52.27L13.756,68.61C14.118,69.247 14.705,69.705 15.412,69.902C15.657,69.969 15.906,70.003 16.153,70.003C16.62,70.003 17.08,69.883 17.497,69.646L20.642,67.866C21.96,67.121 22.425,65.443 21.679,64.127L20.588,62.2L22.37,61.172L36.69,65.009C37.49,65.223 38.286,65.33 39.07,65.33C40.656,65.33 42.187,64.894 43.587,64.033L63.933,51.505C65.83,50.336 66.434,47.394 65.199,45.332Z" clip-rule="evenodd" fill-rule="evenodd" fill="#FFFFFF"/>
</svg>
