<svg width="70" height="70" viewBox="0 0 70 70" fill="none" xmlns="http://www.w3.org/2000/svg" xmlns:xlink="http://www.w3.org/1999/xlink">
<path d="M35,70C54.33,70 70,54.33 70,35C70,15.67 54.33,0 35,0C15.67,0 0,15.67 0,35C0,54.33 15.67,70 35,70Z" fill="#F5F5F5"/>
<path d="M45.242,68.431C46.065,68.192 46.878,67.922 47.681,67.622C48.769,67.199 49.835,66.723 50.875,66.194C51.915,65.663 52.929,65.082 53.911,64.45C54.892,63.82 55.841,63.141 56.755,62.416C57.668,61.691 58.545,60.922 59.382,60.11C60.22,59.296 61.018,58.44 61.771,57.546C62.522,56.655 63.228,55.726 63.886,54.764C64.545,53.8 65.155,52.803 65.715,51.778C66.274,50.754 66.781,49.703 67.235,48.628C67.691,47.554 68.092,46.458 68.438,45.345C68.445,45.318 68.451,45.292 68.458,45.266L46.594,23.406C45.074,21.88 43.267,20.669 41.277,19.843C39.287,19.017 37.154,18.593 35,18.594C25.952,18.594 18.594,25.952 18.594,35C18.594,39.524 20.433,43.625 23.406,46.594L45.242,68.431Z" fill="#FFFFFF"/>
<path d="M35,18.594C25.952,18.594 18.594,25.953 18.594,35C18.594,44.048 25.952,51.406 35,51.406C44.048,51.406 51.406,44.048 51.406,35C51.406,25.953 44.048,18.594 35,18.594ZM35,20.781C42.866,20.781 49.219,27.134 49.219,35C49.219,42.866 42.866,49.219 35,49.219C33.132,49.221 31.282,48.855 29.556,48.141C27.83,47.427 26.261,46.38 24.941,45.059C23.62,43.739 22.573,42.17 21.859,40.444C21.145,38.718 20.779,36.868 20.781,35C20.781,27.134 27.134,20.781 35,20.781ZM34.923,26.125C34.647,26.145 34.388,26.269 34.199,26.472C34.01,26.675 33.906,26.942 33.906,27.219C33.906,27.509 34.021,27.787 34.227,27.993C34.432,28.198 34.71,28.313 35,28.313C35.29,28.313 35.568,28.198 35.773,27.993C35.979,27.787 36.094,27.509 36.094,27.219C36.094,26.929 35.979,26.651 35.773,26.446C35.568,26.241 35.29,26.125 35,26.125C34.974,26.125 34.949,26.125 34.923,26.125ZM34.983,30.223C34.693,30.227 34.417,30.346 34.216,30.554C34.014,30.761 33.903,31.04 33.906,31.329L33.906,42.768C33.906,43.058 34.021,43.336 34.227,43.541C34.432,43.746 34.71,43.862 35,43.862C35.29,43.862 35.568,43.746 35.773,43.541C35.979,43.336 36.094,43.058 36.094,42.768L36.094,31.329C36.096,31.183 36.068,31.038 36.013,30.903C35.957,30.767 35.876,30.645 35.772,30.541C35.668,30.438 35.545,30.357 35.41,30.302C35.274,30.247 35.129,30.22 34.983,30.223Z" fill="#000000" fill-opacity="0.6"/>
</svg>
