<svg width="50" height="48" viewBox="0 0 50 48" fill="none" xmlns="http://www.w3.org/2000/svg" xmlns:xlink="http://www.w3.org/1999/xlink">
<path d="M8.417,5.5C9.19,5.5 9.932,5.193 10.479,4.646C11.026,4.099 11.333,3.357 11.333,2.583C11.333,1.81 11.026,1.068 10.479,0.521C9.932,-0.026 9.19,-0.333 8.417,-0.333L2.583,-0.333C1.81,-0.333 1.068,-0.026 0.521,0.521C-0.026,1.068 -0.333,1.81 -0.333,2.583L-0.333,43.417C-0.333,44.19 -0.026,44.932 0.521,45.479C1.068,46.026 1.81,46.333 2.583,46.333L8.417,46.333C9.19,46.333 9.932,46.026 10.479,45.479C11.026,44.932 11.333,44.19 11.333,43.417C11.333,42.643 11.026,41.901 10.479,41.354C9.932,40.807 9.19,40.5 8.417,40.5L5.5,40.5L5.5,5.5L8.417,5.5ZM48.725,21.308L40.5,9.642C40.054,9.013 39.377,8.586 38.617,8.455C37.858,8.324 37.077,8.499 36.446,8.942C36.13,9.163 35.862,9.444 35.656,9.769C35.45,10.095 35.31,10.458 35.245,10.837C35.18,11.217 35.19,11.606 35.276,11.981C35.362,12.357 35.522,12.712 35.746,13.025L40.762,20.083L17.167,20.083C16.393,20.083 15.651,20.391 15.104,20.938C14.557,21.485 14.25,22.226 14.25,23C14.25,23.773 14.557,24.515 15.104,25.062C15.651,25.609 16.393,25.917 17.167,25.917L40.5,25.917L35.25,32.917C35.02,33.223 34.853,33.572 34.758,33.943C34.663,34.314 34.642,34.7 34.696,35.079C34.75,35.458 34.878,35.823 35.074,36.153C35.269,36.482 35.527,36.77 35.833,37C36.338,37.379 36.952,37.583 37.583,37.583C38.036,37.583 38.483,37.478 38.888,37.275C39.293,37.073 39.645,36.779 39.917,36.417L48.667,24.75C49.04,24.257 49.247,23.657 49.258,23.039C49.268,22.42 49.082,21.814 48.725,21.308Z" fill="#FFFFFF"/>
</svg>
