<svg width="70" height="70" viewBox="0 0 70 70" fill="none" xmlns="http://www.w3.org/2000/svg" xmlns:xlink="http://www.w3.org/1999/xlink">
<path d="M54.045,57.076C53.558,57.076 53.162,57.471 53.162,57.972L53.162,58.341C53.162,59.791 51.961,61.005 50.497,61.005L15.533,61.005C14.07,61.005 12.87,59.792 12.87,58.341L12.87,14.806C12.87,13.33 14.07,12.143 15.533,12.143L23.247,12.143L23.247,13.013C23.247,14.49 24.433,15.703 25.91,15.703L40.123,15.703C41.586,15.703 42.786,14.49 42.786,13.013L42.786,12.143L50.499,12.143C51.963,12.143 53.164,13.33 53.164,14.806L53.164,23.508C53.164,24.009 53.559,24.405 54.048,24.405C54.548,24.405 54.943,24.009 54.943,23.508L54.943,14.806C54.943,12.354 52.953,10.376 50.499,10.376L42.786,10.376L42.786,9.48C42.786,8.003 41.586,6.816 40.123,6.816L36.444,6.816C36.048,5.287 34.664,4.153 33.016,4.153C31.368,4.153 29.983,5.287 29.588,6.816L25.91,6.816C24.433,6.816 23.247,8.003 23.247,9.48L23.247,10.376L15.533,10.376C13.081,10.376 11.089,12.354 11.089,14.806L11.089,58.341C11.089,60.793 13.08,62.771 15.533,62.771L50.498,62.771C52.95,62.771 54.942,60.793 54.942,58.341L54.942,57.972C54.941,57.471 54.546,57.076 54.045,57.076ZM33.016,5.919C33.991,5.919 34.795,6.71 34.795,7.686C34.795,8.688 33.991,9.478 33.016,9.478C32.04,9.478 31.236,8.688 31.236,7.686C31.236,6.71 32.04,5.919 33.016,5.919ZM25.013,9.48C25.013,8.979 25.422,8.583 25.91,8.583L29.588,8.583C29.983,10.112 31.368,11.247 33.016,11.247C34.664,11.247 36.048,10.113 36.444,8.583L40.122,8.583C40.609,8.583 41.006,8.979 41.006,9.48L41.006,13.013C41.006,13.514 40.61,13.909 40.122,13.909L25.909,13.909C25.421,13.909 25.012,13.514 25.012,13.013L25.013,9.48Z" fill="#FFFFFF"/>
<path d="M25.105,21.292C25.105,19.842 23.905,18.629 22.441,18.629L19.765,18.629C18.302,18.629 17.102,19.842 17.102,21.292L17.102,23.955C17.102,25.432 18.302,26.619 19.765,26.619L22.441,26.619C23.905,26.619 25.105,25.432 25.105,23.955L25.105,21.292ZM23.325,23.955C23.325,24.456 22.93,24.852 22.441,24.852L19.765,24.852C19.277,24.852 18.881,24.456 18.881,23.955L18.881,21.292C18.881,20.817 19.276,20.422 19.765,20.422L22.441,20.422C22.929,20.422 23.325,20.817 23.325,21.292L23.325,23.955Z" fill="#FFFFFF"/>
<path d="M25.105,33.739C25.105,32.262 23.905,31.076 22.441,31.076L19.765,31.076C18.302,31.076 17.102,32.262 17.102,33.739L17.102,36.402C17.102,37.88 18.302,39.067 19.765,39.067L22.441,39.067C23.905,39.067 25.105,37.88 25.105,36.402L25.105,33.739ZM23.325,36.401C23.325,36.903 22.93,37.298 22.441,37.298L19.765,37.298C19.277,37.298 18.881,36.903 18.881,36.401L18.881,33.738C18.881,33.263 19.276,32.842 19.765,32.842L22.441,32.842C22.929,32.842 23.325,33.264 23.325,33.738L23.325,36.401Z" fill="#FFFFFF"/>
<path d="M22.441,43.496L19.765,43.496C18.302,43.496 17.102,44.708 17.102,46.186L17.102,48.849C17.102,50.299 18.302,51.512 19.765,51.512L22.441,51.512C23.905,51.512 25.105,50.3 25.105,48.849L25.105,46.186C25.105,44.708 23.905,43.496 22.441,43.496ZM23.325,48.848C23.325,49.349 22.93,49.719 22.441,49.719L19.765,49.719C19.277,49.719 18.881,49.349 18.881,48.848L18.881,46.185C18.881,45.683 19.276,45.288 19.765,45.288L22.441,45.288C22.929,45.288 23.325,45.683 23.325,46.185L23.325,48.848Z" fill="#FFFFFF"/>
<path d="M48.929,22.637C48.929,22.136 48.521,21.74 48.033,21.74L29.482,21.74C28.994,21.74 28.598,22.136 28.598,22.637C28.598,23.138 28.994,23.508 29.482,23.508L48.033,23.508C48.521,23.508 48.929,23.138 48.929,22.637Z" fill="#FFFFFF"/>
<path d="M29.482,35.954L29.495,35.954L38.276,35.954C38.777,35.954 39.173,35.558 39.173,35.057C39.173,34.582 38.777,34.16 38.276,34.16L29.482,34.186C28.994,34.186 28.598,34.581 28.598,35.056C28.598,35.558 28.994,35.954 29.482,35.954Z" fill="#FFFFFF"/>
<path d="M29.482,48.4L39.173,48.4C39.66,48.4 40.056,48.005 40.056,47.504C40.056,47.029 39.662,46.633 39.173,46.633L29.482,46.633C28.994,46.633 28.598,47.029 28.598,47.504C28.598,48.005 28.994,48.4 29.482,48.4Z" fill="#FFFFFF"/>
<path d="M64.263,34.16L61.744,34.16C62.417,33.343 62.825,32.287 62.825,31.128C62.825,28.465 60.663,26.302 57.986,26.302C56.061,26.302 54.401,27.437 53.623,29.072C52.923,28.412 52.001,28.017 50.972,28.017C48.783,28.017 47.004,29.81 47.004,32C47.004,32.791 47.241,33.555 47.663,34.162L43.84,34.162C43.339,34.162 42.944,34.584 42.944,35.059L42.944,40.042C42.944,40.543 43.339,40.939 43.84,40.939L44.275,40.939L44.275,53.517C44.275,54.018 44.67,54.413 45.159,54.413L62.931,54.413C63.419,54.413 63.828,54.018 63.828,53.517L63.828,40.939L64.262,40.939C64.763,40.939 65.158,40.543 65.158,40.042L65.158,35.059C65.159,34.582 64.764,34.16 64.263,34.16ZM63.379,39.17L54.941,39.17L54.941,35.954L57.986,35.954C58.04,35.954 58.079,35.954 58.132,35.954L63.379,35.954L63.379,39.17ZM54.941,31.128C54.941,29.44 56.313,28.069 57.986,28.069C59.674,28.069 61.045,29.44 61.045,31.128C61.045,32.79 59.713,34.135 58.053,34.16L54.941,34.16L54.941,31.998L54.941,31.128ZM48.771,31.999C48.771,30.786 49.76,29.784 50.973,29.784C52.174,29.784 53.163,30.786 53.163,31.999L53.163,34.161L50.894,34.161C49.721,34.134 48.771,33.158 48.771,31.999ZM44.724,35.954L50.894,35.954C50.921,35.954 50.948,35.954 50.973,35.954L53.163,35.954L53.163,39.17L44.724,39.17L44.724,35.954ZM46.054,40.938L53.162,40.938L53.162,52.645L46.054,52.645L46.054,40.938ZM62.047,52.645L54.941,52.645L54.941,40.938L62.047,40.938L62.047,52.645Z" fill="#FFFFFF"/>
<path d="M44.763,41.168L53.466,47.444L54.636,45.822L45.933,39.546L44.763,41.168Z" fill="#FFFFFF"/>
<path d="M53.45,45.834L45.454,51.846L46.656,53.445L54.652,47.432L53.45,45.834Z" fill="#FFFFFF"/>
<path d="M54.631,47.448L62.627,41.753L61.467,40.123L53.471,45.819L54.631,47.448Z" fill="#FFFFFF"/>
<path d="M53.527,47.485L63.304,53.497L64.352,51.794L54.575,45.781L53.527,47.485Z" fill="#FFFFFF"/>
<path d="M13.607,11.675L13.058,61.764L15.058,61.786L15.607,11.697L13.607,11.675Z" fill="#FFFFFF"/>
<path d="M22.575,19.185L18.204,23.221L19.561,24.69L23.931,20.654L22.575,19.185Z" fill="#FFFFFF"/>
<path d="M18.164,33.24L23.084,38.318L24.52,36.926L19.601,31.849L18.164,33.24Z" fill="#FFFFFF"/>
<path d="M23.042,43.238L18.122,48.99L19.642,50.29L24.562,44.538L23.042,43.238Z" fill="#FFFFFF"/>
</svg>
