<svg width="26" height="26" viewBox="0 0 26 26" fill="none" xmlns="http://www.w3.org/2000/svg">
<path d="M22.2875 14.2188C22.3375 13.8188 22.375 13.4125 22.375 13C22.375 12.5875 22.3375 12.1812 22.2875 11.7812L24.9312 9.7125C25.1687 9.525 25.2375 9.1875 25.0812 8.9125L22.5812 4.58125C22.425 4.3125 22.1 4.2 21.8187 4.3125L18.7062 5.56875C18.0625 5.075 17.3562 4.65625 16.5937 4.3375L16.125 1.025C16.0687 0.73125 15.8125 0.5 15.5 0.5H10.5C10.1875 0.5 9.93122 0.73125 9.88122 1.025L9.41247 4.3375C8.65692 4.65263 7.94655 5.06666 7.29997 5.56875L4.18747 4.3125C4.04913 4.25972 3.89655 4.25776 3.75691 4.30698C3.61727 4.3562 3.49964 4.45339 3.42497 4.58125L0.924968 8.9125C0.768717 9.18125 0.837468 9.51875 1.07497 9.7125L3.71247 11.7812C3.66247 12.1812 3.62497 12.5875 3.62497 13C3.62497 13.4125 3.66247 13.8188 3.71247 14.2188L1.07497 16.2875C0.837468 16.475 0.768717 16.8125 0.924968 17.0875L3.42497 21.4188C3.58122 21.6875 3.90622 21.8 4.18747 21.6875L7.29997 20.4312C7.94372 20.925 8.64997 21.3438 9.41247 21.6625L9.88122 24.975C9.93122 25.2687 10.1875 25.5 10.5 25.5H15.5C15.8125 25.5 16.0687 25.2687 16.1187 24.975L16.5875 21.6625C17.343 21.3474 18.0534 20.9333 18.7 20.4312L21.8125 21.6875C21.9508 21.7403 22.1034 21.7422 22.243 21.693C22.3827 21.6438 22.5003 21.5466 22.575 21.4188L25.075 17.0875C25.2312 16.8188 25.1625 16.4812 24.925 16.2875L22.2875 14.2188ZM13 17.375C10.5812 17.375 8.62497 15.4187 8.62497 13C8.62497 10.5813 10.5812 8.625 13 8.625C15.4187 8.625 17.375 10.5813 17.375 13C17.375 15.4187 15.4187 17.375 13 17.375Z" fill="white"/>
</svg>
