<svg width="35" height="35" viewBox="0 0 35 35" fill="none" xmlns="http://www.w3.org/2000/svg">
<path d="M6.01562 7.86401H21.3281C21.6182 7.86401 21.8964 7.74878 22.1015 7.54366C22.3066 7.33854 22.4219 7.06034 22.4219 6.77026C22.4219 6.48018 22.3066 6.20198 22.1015 5.99687C21.8964 5.79175 21.6182 5.67651 21.3281 5.67651H6.01562C5.72554 5.67651 5.44735 5.79175 5.24223 5.99687C5.03711 6.20198 4.92188 6.48018 4.92188 6.77026C4.92188 7.06034 5.03711 7.33854 5.24223 7.54366C5.44735 7.74878 5.72554 7.86401 6.01562 7.86401ZM6.01562 15.1484H21.3281C21.6182 15.1484 21.8964 15.0332 22.1015 14.828C22.3066 14.6229 22.4219 14.3447 22.4219 14.0546C22.4219 13.7646 22.3066 13.4864 22.1015 13.2812C21.8964 13.0761 21.6182 12.9609 21.3281 12.9609H6.01562C5.72554 12.9609 5.44735 13.0761 5.24223 13.2812C5.03711 13.4864 4.92188 13.7646 4.92188 14.0546C4.92188 14.3447 5.03711 14.6229 5.24223 14.828C5.44735 15.0332 5.72554 15.1484 6.01562 15.1484Z" fill="white"/>
<path d="M26.25 16.4828V4.375C26.25 3.50476 25.9043 2.67016 25.2889 2.05481C24.6736 1.43945 23.839 1.09375 22.9688 1.09375H4.375C3.50476 1.09375 2.67016 1.43945 2.05481 2.05481C1.43945 2.67016 1.09375 3.50476 1.09375 4.375V30.625C1.09375 31.4952 1.43945 32.3298 2.05481 32.9452C2.67016 33.5605 3.50476 33.9062 4.375 33.9062H22.9688C23.2428 33.9031 23.515 33.8626 23.7781 33.7859C24.2333 33.8649 24.6943 33.9052 25.1562 33.9062C27.3716 33.8911 29.4988 33.0362 31.1085 31.514C32.7182 29.9919 33.6906 27.9157 33.8294 25.7047C33.9682 23.4936 33.2631 21.3121 31.8564 19.6006C30.4497 17.8891 28.4461 16.7749 26.25 16.4828ZM4.375 31.7188C4.08492 31.7188 3.80672 31.6035 3.6016 31.3984C3.39648 31.1933 3.28125 30.9151 3.28125 30.625V4.375C3.28125 4.08492 3.39648 3.80672 3.6016 3.6016C3.80672 3.39648 4.08492 3.28125 4.375 3.28125H22.9688C23.2588 3.28125 23.537 3.39648 23.7421 3.6016C23.9473 3.80672 24.0625 4.08492 24.0625 4.375V16.4828C22.8286 16.6388 21.6421 17.056 20.5822 17.7067C19.5222 18.3574 18.6132 19.2265 17.9156 20.2563H6.01562C5.72554 20.2563 5.44735 20.3715 5.24223 20.5766C5.03711 20.7817 4.92188 21.0599 4.92188 21.35C4.92188 21.6401 5.03711 21.9183 5.24223 22.1234C5.44735 22.3285 5.72554 22.4438 6.01562 22.4438H16.8438C16.5525 23.3184 16.4048 24.2344 16.4062 25.1562C16.407 25.9666 16.5211 26.7729 16.7453 27.5516H6.01562C5.72554 27.5516 5.44735 27.6668 5.24223 27.8719C5.03711 28.077 4.92188 28.3552 4.92188 28.6453C4.92188 28.9354 5.03711 29.2136 5.24223 29.4187C5.44735 29.6238 5.72554 29.7391 6.01562 29.7391H17.7188C18.1727 30.4801 18.737 31.1477 19.3922 31.7188H4.375ZM25.1562 31.7188C23.8583 31.7188 22.5895 31.3339 21.5103 30.6128C20.4311 29.8917 19.59 28.8668 19.0933 27.6676C18.5966 26.4685 18.4666 25.149 18.7198 23.876C18.9731 22.603 19.5981 21.4336 20.5159 20.5159C21.4336 19.5981 22.603 18.9731 23.876 18.7198C25.149 18.4666 26.4685 18.5966 27.6676 19.0933C28.8668 19.59 29.8917 20.4311 30.6128 21.5103C31.3339 22.5895 31.7188 23.8583 31.7188 25.1562C31.7188 26.8967 31.0273 28.5659 29.7966 29.7966C28.5659 31.0273 26.8967 31.7188 25.1562 31.7188Z" fill="white"/>
<path d="M28.2142 23.9111L25.1887 27.5414C25.1784 27.5538 25.1656 27.5639 25.1513 27.5713C25.1369 27.5786 25.1212 27.583 25.1051 27.5841C25.089 27.5852 25.0729 27.583 25.0576 27.5778C25.0424 27.5725 25.0284 27.5642 25.0164 27.5534L23.0397 25.7747C23.0279 25.764 23.0183 25.7511 23.0115 25.7367C23.0047 25.7223 23.0008 25.7067 23.0001 25.6908C22.9994 25.6749 23.0019 25.659 23.0074 25.644C23.0129 25.6291 23.0214 25.6154 23.0323 25.6038L23.6769 24.9137C23.6981 24.891 23.7273 24.8774 23.7584 24.8758C23.7894 24.8742 23.8198 24.8848 23.8432 24.9052L24.9451 25.8661L27.4311 23.0407C27.4425 23.0277 27.4566 23.0174 27.4723 23.0104C27.4881 23.0033 27.5052 22.9998 27.5224 23C27.5397 23.0002 27.5567 23.0041 27.5723 23.0115C27.5879 23.0189 27.6017 23.0295 27.6128 23.0427L28.2142 23.7572C28.2322 23.7788 28.2421 23.806 28.2421 23.8342C28.2421 23.8623 28.2322 23.8895 28.2142 23.9111Z" fill="white"/>
</svg>
