<svg width="36" height="35" viewBox="0 0 36 35" fill="none" xmlns="http://www.w3.org/2000/svg">
<path fill-rule="evenodd" clip-rule="evenodd" d="M17.8141 7.17817L13.5189 4.9615C13.453 4.92707 13.3794 4.90904 13.3045 4.90904C13.2297 4.90904 13.156 4.92707 13.0902 4.9615L2.53876 10.4236C2.4681 10.4602 2.40861 10.5141 2.36627 10.58C2.32394 10.646 2.30025 10.7215 2.29759 10.7992C2.29492 10.8768 2.31339 10.9537 2.35111 11.0222C2.38884 11.0907 2.44451 11.1484 2.51251 11.1894L6.53751 13.6129L2.53001 15.7977C2.46015 15.8355 2.4018 15.8904 2.36081 15.957C2.31983 16.0236 2.29766 16.0995 2.29655 16.177C2.29544 16.2545 2.31543 16.331 2.35449 16.3987C2.39356 16.4663 2.45032 16.5228 2.51907 16.5624L6.9761 19.1514V25.7006C6.9761 25.8629 7.06798 26.0114 7.21454 26.0888L17.6074 31.5742C17.6727 31.6094 17.7459 31.6283 17.8206 31.6294H17.8338C17.9046 31.6287 17.9742 31.612 18.0372 31.5806L29.3608 26.0962C29.4366 26.0594 29.5003 26.003 29.5449 25.9331C29.5896 25.8633 29.6133 25.7828 29.6134 25.7006V18.8385L33.61 16.5465C33.6798 16.5067 33.7373 16.4496 33.7767 16.381C33.8161 16.3125 33.8359 16.235 33.8341 16.1565C33.8323 16.0781 33.809 16.0015 33.7665 15.9347C33.7241 15.8679 33.664 15.8133 33.5925 15.7765L29.1683 13.4814L33.3059 11.1979C33.3754 11.1605 33.4336 11.106 33.4745 11.0399C33.5154 10.9738 33.5376 10.8984 33.5389 10.8213C33.5402 10.7442 33.5206 10.6682 33.482 10.6008C33.4434 10.5334 33.3872 10.4771 33.3191 10.4374L23.0881 4.36226C23.0166 4.32019 22.9346 4.29786 22.8509 4.29767C22.7673 4.29748 22.6852 4.31945 22.6134 4.3612L17.8141 7.17817ZM28.7013 19.3614L22.8956 22.6917C22.8244 22.7324 22.7431 22.7535 22.6604 22.7527C22.5777 22.752 22.4968 22.7294 22.4264 22.6874L17.837 19.9617L13.5539 22.681C13.4823 22.7263 13.3989 22.751 13.3134 22.7525C13.228 22.754 13.1438 22.7322 13.0705 22.6895L7.8872 19.6806V25.4376L17.3733 30.4436V21.6523C17.3733 21.5351 17.4213 21.4227 17.5067 21.3399C17.5921 21.2571 17.708 21.2105 17.8288 21.2105C17.9497 21.2105 18.0655 21.2571 18.151 21.3399C18.2364 21.4227 18.2844 21.5351 18.2844 21.6523V30.4723L28.7013 25.427V19.3614ZM28.2375 14L18.7142 19.4462L22.6692 21.7954L28.7067 18.3326C28.733 17.1139 28.9452 16.6589 29.1584 16.7406C29.3389 16.6706 29.5194 16.9877 29.5861 17.8277L32.4495 16.1848L28.2375 14ZM16.9609 19.4621L7.43001 14.14L3.66095 16.1954L13.2936 21.7891L16.9588 19.4621H16.9609ZM8.33782 13.6267L17.8272 18.9265L27.3209 13.4983L17.8327 8.19847L8.33782 13.6267ZM16.8975 7.70635L7.95063 12.8227L7.43876 13.1144L3.66532 10.8426L13.3056 5.85241L16.8975 7.70635ZM18.7263 7.67666L22.8497 5.25741L32.1859 10.8001L28.2277 12.9839L18.7263 7.67666Z" fill="white"/>
</svg>
