<svg width="31" height="33" viewBox="0 0 31 33" fill="none" xmlns="http://www.w3.org/2000/svg">
<path fill-rule="evenodd" clip-rule="evenodd" d="M26.6255 23.305L27.0121 22.9183C27.2257 22.7047 27.2257 22.3586 27.0121 22.145C26.7985 21.9314 26.4524 21.9314 26.2388 22.145L25.8521 22.5317L25.4655 22.145C24.8225 21.5031 23.7832 21.5041 23.1445 22.145C22.5047 22.7848 22.5047 23.8251 23.1445 24.4649L23.5318 24.852L22.7581 25.6257L21.5978 24.4649C21.3842 24.2513 21.0381 24.2513 20.8245 24.4649C20.6109 24.6786 20.6109 25.0246 20.8245 25.2383L21.9848 26.399L21.5978 26.786C21.3842 26.9996 21.3842 27.3456 21.5978 27.5593C21.7047 27.6661 21.8446 27.7195 21.9845 27.7195C22.1244 27.7195 22.2643 27.6661 22.3712 27.5593L22.7579 27.1725L23.1445 27.5593C23.4649 27.8786 23.8847 28.0378 24.3044 28.0378C24.7253 28.0378 25.1451 27.8786 25.4655 27.5593C26.1042 26.9195 26.1042 25.8781 25.4655 25.2383L25.0787 24.8517L25.8521 24.0783L27.0121 25.2383C27.2257 25.4519 27.5718 25.4519 27.7854 25.2383C27.9991 25.0246 27.9991 24.6786 27.7854 24.4649L26.6255 23.305ZM24.6922 26.0116C24.9047 26.2252 24.9047 26.5723 24.6922 26.786C24.4796 26.9964 24.1325 26.9996 23.9178 26.786L23.5312 26.3992L24.3054 25.625L24.6922 26.0116ZM24.3051 24.0787L23.9178 23.6916C23.7042 23.478 23.7042 23.1319 23.9178 22.9183C24.1325 22.7036 24.4796 22.7058 24.6922 22.9183L25.0788 23.305L24.3051 24.0787Z" fill="white"/>
<path fill-rule="evenodd" clip-rule="evenodd" d="M28.1721 17.3449C27.8698 17.3449 27.6252 17.5895 27.6252 17.8918V18.8915H23.5312C23.3859 18.8915 23.247 18.9492 23.1445 19.0517L16.958 25.2383C16.7444 25.4519 16.7444 25.7979 16.958 26.0116L23.1445 32.1992C23.247 32.3017 23.3859 32.3594 23.5312 32.3594C23.6764 32.3594 23.8153 32.3017 23.9178 32.1992L30.1054 26.0116C30.2079 25.909 30.2656 25.7702 30.2656 25.6249V19.4384C30.2656 19.1361 30.021 18.8915 29.7188 18.8915H28.719V17.8918C28.719 17.5895 28.4744 17.3449 28.1721 17.3449ZM29.1719 19.9853V25.3985L23.5312 31.0392L18.118 25.6249L23.7576 19.9853H27.6252V20.985C27.6252 21.2873 27.8698 21.5319 28.1721 21.5319C28.4744 21.5319 28.719 21.2873 28.719 20.985V19.9853H29.1719ZM2.92188 29.625C2.92188 29.9273 3.16647 30.1719 3.46875 30.1719H17.6875C17.9898 30.1719 18.2344 29.9273 18.2344 29.625C18.2344 29.3227 17.9898 29.0781 17.6875 29.0781H4.01562V27.4375C4.01562 27.1352 3.77103 26.8906 3.46875 26.8906C3.16647 26.8906 2.92188 27.1352 2.92188 27.4375V29.625ZM2.92188 5.5625V23.0625C2.92188 23.3648 3.16647 23.6094 3.46875 23.6094C3.77103 23.6094 4.01562 23.3648 4.01562 23.0625V6.10938H7.84375C8.14603 6.10938 8.39062 5.86478 8.39062 5.5625V1.73438H24.7969V16.5C24.7969 16.8023 25.0415 17.0469 25.3438 17.0469C25.646 17.0469 25.8906 16.8023 25.8906 16.5V1.1875C25.8906 0.885223 25.646 0.640625 25.3438 0.640625H7.84375C7.69849 0.640625 7.55963 0.698303 7.45709 0.800842L3.08209 5.17584C2.97955 5.27838 2.92188 5.41724 2.92188 5.5625ZM4.78894 5.01562L7.29688 2.50769V5.01562H4.78894Z" fill="white"/>
<path fill-rule="evenodd" clip-rule="evenodd" d="M10.5781 8.84375C10.5781 8.54147 10.3335 8.29688 10.0312 8.29688H6.75C6.44772 8.29688 6.20312 8.54147 6.20312 8.84375V12.125C6.20312 12.4273 6.44772 12.6719 6.75 12.6719H10.0312C10.3335 12.6719 10.5781 12.4273 10.5781 12.125V8.84375ZM9.48438 11.5781H7.29688V9.39062H9.48438V11.5781ZM22.0625 8.29688H12.2188C11.9165 8.29688 11.6719 8.54147 11.6719 8.84375C11.6719 9.14603 11.9165 9.39062 12.2188 9.39062H22.0625C22.3648 9.39062 22.6094 9.14603 22.6094 8.84375C22.6094 8.54147 22.3648 8.29688 22.0625 8.29688ZM12.2188 11.5781H20.9688C21.271 11.5781 21.5156 11.3335 21.5156 11.0312C21.5156 10.729 21.271 10.4844 20.9688 10.4844H12.2188C11.9165 10.4844 11.6719 10.729 11.6719 11.0312C11.6719 11.3335 11.9165 11.5781 12.2188 11.5781ZM10.0312 14.8594H6.75C6.44772 14.8594 6.20312 15.104 6.20312 15.4062V18.6875C6.20312 18.9898 6.44772 19.2344 6.75 19.2344H10.0312C10.3335 19.2344 10.5781 18.9898 10.5781 18.6875V15.4062C10.5781 15.104 10.3335 14.8594 10.0312 14.8594ZM9.48438 18.1406H7.29688V15.9531H9.48438V18.1406ZM22.6094 15.4062C22.6094 15.104 22.3648 14.8594 22.0625 14.8594H12.2188C11.9165 14.8594 11.6719 15.104 11.6719 15.4062C11.6719 15.7085 11.9165 15.9531 12.2188 15.9531H22.0625C22.3648 15.9531 22.6094 15.7085 22.6094 15.4062ZM12.2188 17.0469C11.9165 17.0469 11.6719 17.2915 11.6719 17.5938C11.6719 17.896 11.9165 18.1406 12.2188 18.1406H20.9688C21.271 18.1406 21.5156 17.896 21.5156 17.5938C21.5156 17.2915 21.271 17.0469 20.9688 17.0469H12.2188Z" fill="white"/>
<path fill-rule="evenodd" clip-rule="evenodd" d="M1.28125 7.20312C0.978973 7.20312 0.734375 7.44772 0.734375 7.75V31.8125C0.734375 32.1148 0.978973 32.3594 1.28125 32.3594H19.875C20.1773 32.3594 20.4219 32.1148 20.4219 31.8125C20.4219 31.5102 20.1773 31.2656 19.875 31.2656H1.82812V7.75C1.82812 7.44772 1.58353 7.20312 1.28125 7.20312Z" fill="white"/>
<path d="M3.46875 25.7969C3.77078 25.7969 4.01562 25.552 4.01562 25.25C4.01562 24.948 3.77078 24.7031 3.46875 24.7031C3.16672 24.7031 2.92188 24.948 2.92188 25.25C2.92188 25.552 3.16672 25.7969 3.46875 25.7969Z" fill="white"/>
</svg>
