<svg width="70" height="70" viewBox="0 0 70 70" fill="none" xmlns="http://www.w3.org/2000/svg" xmlns:xlink="http://www.w3.org/1999/xlink">
<g filter="url(#filter1_596)">
<path d="M58.067,56.613L23.122,56.613C22.881,56.613 22.663,56.449 22.608,56.219L7.864,1.903L0.536,1.903C0.241,1.903 0,1.663 0,1.356C0,1.05 0.241,0.82 0.536,0.82L8.28,0.82C8.52,0.82 8.739,0.984 8.794,1.214L23.527,55.53L58.056,55.53C58.352,55.53 58.592,55.77 58.592,56.066C58.592,56.361 58.362,56.613 58.067,56.613Z" fill="#FFFFFF"/>
<path d="M58.614,48.836L21.011,48.836C20.716,48.836 20.475,48.595 20.475,48.3C20.475,48.005 20.716,47.764 21.011,47.764L58.614,47.764C59.423,47.764 60.145,47.228 60.364,46.451L68.731,18.102L12.666,18.102C12.37,18.102 12.13,17.861 12.13,17.566C12.13,17.27 12.37,17.03 12.666,17.03L69.453,17.03C69.617,17.03 69.781,17.106 69.88,17.248C69.978,17.38 70.011,17.566 69.967,17.719L61.392,46.769C61.042,47.972 59.894,48.836 58.614,48.836ZM23.122,69.18C19.359,69.18 16.308,66.117 16.308,62.366C16.308,58.614 19.37,55.551 23.122,55.551C26.873,55.551 29.936,58.614 29.936,62.366C29.936,66.117 26.884,69.18 23.122,69.18ZM23.122,56.612C19.95,56.612 17.38,59.183 17.38,62.355C17.38,65.526 19.95,68.097 23.122,68.097C26.283,68.097 28.864,65.526 28.864,62.355C28.864,59.194 26.283,56.612 23.122,56.612ZM58.023,69.18C54.261,69.18 51.209,66.117 51.209,62.366C51.209,58.614 54.272,55.551 58.023,55.551C61.775,55.551 64.837,58.614 64.837,62.366C64.837,66.117 61.775,69.18 58.023,69.18ZM58.023,56.612C54.862,56.612 52.281,59.183 52.281,62.355C52.281,65.526 54.851,68.097 58.023,68.097C61.195,68.097 63.766,65.526 63.766,62.355C63.766,59.194 61.184,56.612 58.023,56.612Z" fill="#FFFFFF"/>
<path d="M54.075,44.691L27.147,44.691C26.852,44.691 26.611,44.45 26.611,44.155L26.611,25.244C26.611,24.948 26.852,24.708 27.147,24.708L54.075,24.708C54.37,24.708 54.611,24.948 54.611,25.244L54.611,44.155C54.622,44.45 54.381,44.691 54.075,44.691ZM27.694,43.608L53.55,43.608L53.55,25.78L27.694,25.78L27.694,43.608Z" fill="#FFFFFF"/>
<path d="M42.514,37.713L38.719,37.713C38.423,37.713 38.183,37.472 38.183,37.177L38.183,33.13C38.183,32.834 38.423,32.594 38.719,32.594L42.514,32.594C42.809,32.594 43.05,32.834 43.05,33.13L43.05,37.177C43.05,37.472 42.809,37.713 42.514,37.713ZM39.255,36.63L41.978,36.63L41.978,33.655L39.255,33.655L39.255,36.63ZM45.172,25.78C44.877,25.78 44.636,25.539 44.636,25.244L44.636,22.4C44.636,21.875 44.209,21.438 43.673,21.438L37.472,21.438C36.947,21.438 36.509,21.864 36.509,22.4L36.509,25.244C36.509,25.539 36.269,25.78 35.973,25.78C35.678,25.78 35.438,25.539 35.438,25.244L35.438,22.4C35.438,21.273 36.345,20.366 37.472,20.366L43.673,20.366C44.8,20.366 45.708,21.284 45.708,22.4L45.708,25.244C45.708,25.539 45.467,25.78 45.172,25.78Z" fill="#FFFFFF"/>
<path d="M38.719,35.678C38.664,35.678 38.609,35.667 38.555,35.656L26.994,32.014C26.709,31.927 26.556,31.62 26.644,31.336C26.731,31.052 27.038,30.898 27.322,30.986L38.883,34.628C39.167,34.716 39.32,35.022 39.233,35.306C39.156,35.536 38.949,35.678 38.719,35.678ZM42.514,35.678C42.284,35.678 42.077,35.536 42,35.306C41.913,35.022 42.066,34.716 42.35,34.628L53.911,30.986C54.195,30.898 54.502,31.052 54.589,31.336C54.677,31.62 54.523,31.927 54.239,32.014L42.678,35.656C42.624,35.678 42.569,35.678 42.514,35.678Z" fill="#FFFFFF"/>
<path d="M38.719,35.678C38.664,35.678 38.609,35.667 38.555,35.656L26.994,32.014C26.709,31.927 26.556,31.62 26.644,31.336C26.731,31.052 27.038,30.898 27.322,30.986L38.883,34.628C39.167,34.716 39.32,35.022 39.233,35.306C39.156,35.536 38.949,35.678 38.719,35.678ZM42.514,35.678C42.284,35.678 42.077,35.536 42,35.306C41.913,35.022 42.066,34.716 42.35,34.628L53.911,30.986C54.195,30.898 54.502,31.052 54.589,31.336C54.677,31.62 54.523,31.927 54.239,32.014L42.678,35.656C42.624,35.678 42.569,35.678 42.514,35.678Z" fill="#FFFFFF"/>
</g>
<defs>
<filter id="filter1_596" x="-4" y="-4" width="43" height="43" filterUnits="userSpaceOnUse" color-interpolation-filters="sRGB">
<feFlood flood-opacity="0" result="BackgroundImageFix"/>
<feColorMatrix in="SourceAlpha" type="matrix" values="0 0 0 0 0 0 0 0 0 0 0 0 0 0 0 0 0 0 127 0" result="hardAlpha"/>
<feMorphology radius="0" operator="dilate" in="SourceAlpha" result="0dropshadow"/>
<feOffset dx="0" dy="4"/>
<feGaussianBlur stdDeviation="2"/>
<feComposite in2="hardAlpha" operator="out"/>
<feColorMatrix type="matrix" values="0 0 0 0 0 0 0 0 0 0 0 0 0 0 0 0 0 0 0.25 0"/>
<feBlend mode="normal" in2="BackgroundImageFix" result="0dropshadow"/>
<feBlend mode="normal" in="SourceGraphic" in2="0dropshadow" result="shape"/>
</filter>
</defs>
</svg>
