<svg width="60" height="60" viewBox="0 0 60 60" fill="none" xmlns="http://www.w3.org/2000/svg" xmlns:xlink="http://www.w3.org/1999/xlink">
<path d="M29,58.167C45.109,58.167 58.167,45.109 58.167,29C58.167,12.891 45.109,-0.167 29,-0.167C12.891,-0.167 -0.167,12.891 -0.167,29C-0.167,45.109 12.891,58.167 29,58.167ZM37.75,23.167C37.75,25.487 36.828,27.713 35.187,29.354C33.546,30.995 31.321,31.917 29,31.917C26.679,31.917 24.454,30.995 22.813,29.354C21.172,27.713 20.25,25.487 20.25,23.167C20.25,20.846 21.172,18.62 22.813,16.979C24.454,15.339 26.679,14.417 29,14.417C31.321,14.417 33.546,15.339 35.187,16.979C36.828,18.62 37.75,20.846 37.75,23.167ZM11.5,43.583C13.536,40.865 16.178,38.658 19.216,37.139C22.253,35.62 25.604,34.831 29,34.833C32.396,34.831 35.747,35.62 38.785,37.139C41.822,38.658 44.464,40.865 46.5,43.583C44.464,46.302 41.822,48.508 38.785,50.027C35.747,51.546 32.396,52.336 29,52.333C25.604,52.336 22.253,51.546 19.216,50.027C16.178,48.508 13.536,46.302 11.5,43.583Z" clip-rule="evenodd" fill-rule="evenodd" fill="#FFFFFF"/>
</svg>
