<svg width="64" height="66" viewBox="0 0 64 66" fill="none" xmlns="http://www.w3.org/2000/svg" xmlns:xlink="http://www.w3.org/1999/xlink">
<path d="M59.437,0.188C58.567,0.188 57.733,0.533 57.117,1.149C56.502,1.764 56.156,2.599 56.156,3.469L56.156,17.688L51.781,17.688L51.781,6.75C51.781,6.46 51.666,6.182 51.461,5.977C51.256,5.771 50.978,5.656 50.687,5.656L11.312,5.656C11.022,5.656 10.744,5.771 10.539,5.977C10.334,6.182 10.219,6.46 10.219,6.75L10.219,17.688L5.844,17.688L5.844,3.469C5.844,2.599 5.498,1.764 4.883,1.149C4.267,0.533 3.433,0.188 2.562,0.188C1.692,0.188 0.858,0.533 0.242,1.149C-0.373,1.764 -0.719,2.599 -0.719,3.469L-0.719,64.719C-0.719,65.009 -0.604,65.287 -0.398,65.492C-0.193,65.697 0.085,65.813 0.375,65.813L4.75,65.813C5.04,65.813 5.318,65.697 5.523,65.492C5.729,65.287 5.844,65.009 5.844,64.719L5.844,58.156L56.156,58.156L56.156,64.719C56.156,65.009 56.271,65.287 56.477,65.492C56.682,65.697 56.96,65.813 57.25,65.813L61.625,65.813C61.915,65.813 62.193,65.697 62.398,65.492C62.603,65.287 62.719,65.009 62.719,64.719L62.719,3.469C62.719,2.599 62.373,1.764 61.758,1.149C61.142,0.533 60.308,0.188 59.437,0.188ZM25.531,51.594L25.531,36.281L27.719,36.281L27.719,39.563C27.719,39.852 27.834,40.131 28.039,40.336C28.244,40.541 28.522,40.656 28.812,40.656L33.187,40.656C33.478,40.656 33.756,40.541 33.961,40.336C34.166,40.131 34.281,39.852 34.281,39.563L34.281,36.281L36.469,36.281L36.469,51.594L25.531,51.594ZM12.406,51.594L12.406,36.281L14.594,36.281L14.594,39.563C14.594,39.852 14.709,40.131 14.914,40.336C15.119,40.541 15.397,40.656 15.687,40.656L20.062,40.656C20.353,40.656 20.631,40.541 20.836,40.336C21.041,40.131 21.156,39.852 21.156,39.563L21.156,36.281L23.344,36.281L23.344,51.594L12.406,51.594ZM16.781,36.281L18.969,36.281L18.969,38.469L16.781,38.469L16.781,36.281ZM29.906,36.281L32.094,36.281L32.094,38.469L29.906,38.469L29.906,36.281ZM38.656,36.281L40.844,36.281L40.844,39.563C40.844,39.852 40.959,40.131 41.164,40.336C41.369,40.541 41.647,40.656 41.937,40.656L46.312,40.656C46.603,40.656 46.881,40.541 47.086,40.336C47.291,40.131 47.406,39.852 47.406,39.563L47.406,36.281L49.594,36.281L49.594,51.594L38.656,51.594L38.656,36.281ZM43.031,36.281L45.219,36.281L45.219,38.469L43.031,38.469L43.031,36.281ZM50.687,34.094L11.312,34.094C11.022,34.094 10.744,34.209 10.539,34.414C10.334,34.619 10.219,34.898 10.219,35.188L10.219,51.594L5.844,51.594L5.844,24.25L24.437,24.25L24.437,28.625C24.437,28.915 24.553,29.193 24.758,29.398C24.963,29.603 25.241,29.719 25.531,29.719L36.469,29.719C36.759,29.719 37.037,29.603 37.242,29.398C37.447,29.193 37.562,28.915 37.562,28.625L37.562,24.25L56.156,24.25L56.156,51.594L51.781,51.594L51.781,35.188C51.781,34.898 51.666,34.619 51.461,34.414C51.256,34.209 50.978,34.094 50.687,34.094ZM26.625,24.25L35.375,24.25L35.375,27.531L26.625,27.531L26.625,24.25ZM49.594,17.688L38.656,17.688L38.656,7.844L40.844,7.844L40.844,11.125C40.844,11.415 40.959,11.693 41.164,11.898C41.369,12.104 41.647,12.219 41.937,12.219L46.312,12.219C46.603,12.219 46.881,12.104 47.086,11.898C47.291,11.693 47.406,11.415 47.406,11.125L47.406,7.844L49.594,7.844L49.594,17.688ZM45.219,7.844L45.219,10.031L43.031,10.031L43.031,7.844L45.219,7.844ZM36.469,17.688L25.531,17.688L25.531,7.844L27.719,7.844L27.719,11.125C27.719,11.415 27.834,11.693 28.039,11.898C28.244,12.104 28.522,12.219 28.812,12.219L33.187,12.219C33.478,12.219 33.756,12.104 33.961,11.898C34.166,11.693 34.281,11.415 34.281,11.125L34.281,7.844L36.469,7.844L36.469,17.688ZM32.094,7.844L32.094,10.031L29.906,10.031L29.906,7.844L32.094,7.844ZM18.969,7.844L18.969,10.031L16.781,10.031L16.781,7.844L18.969,7.844ZM12.406,7.844L14.594,7.844L14.594,11.125C14.594,11.415 14.709,11.693 14.914,11.898C15.119,12.104 15.397,12.219 15.687,12.219L20.062,12.219C20.353,12.219 20.631,12.104 20.836,11.898C21.041,11.693 21.156,11.415 21.156,11.125L21.156,7.844L23.344,7.844L23.344,17.688L12.406,17.688L12.406,7.844ZM56.156,19.875L56.156,22.063L5.844,22.063L5.844,19.875L56.156,19.875ZM3.656,63.625L1.469,63.625L1.469,3.469C1.469,3.179 1.584,2.9 1.789,2.695C1.994,2.49 2.272,2.375 2.562,2.375C2.853,2.375 3.131,2.49 3.336,2.695C3.541,2.9 3.656,3.179 3.656,3.469L3.656,63.625ZM5.844,55.969L5.844,53.781L56.156,53.781L56.156,55.969L5.844,55.969ZM60.531,63.625L58.344,63.625L58.344,3.469C58.344,3.179 58.459,2.9 58.664,2.695C58.869,2.49 59.147,2.375 59.437,2.375C59.728,2.375 60.006,2.49 60.211,2.695C60.416,2.9 60.531,3.179 60.531,3.469L60.531,63.625Z" fill="#FFFFFF"/>
</svg>
