<svg width="70" height="70" viewBox="0 0 70 70" fill="none" xmlns="http://www.w3.org/2000/svg" xmlns:xlink="http://www.w3.org/1999/xlink">
<path d="M55.625,24.135C56.102,24.135 56.576,23.942 56.922,23.562L56.946,23.536C57.099,23.366 57.218,23.168 57.294,22.952C57.371,22.737 57.404,22.508 57.392,22.279C57.38,22.051 57.322,21.827 57.223,21.62C57.124,21.414 56.985,21.229 56.814,21.077C56.099,20.427 54.98,20.494 54.33,21.209C54.102,21.459 53.952,21.771 53.897,22.106C53.843,22.44 53.887,22.784 54.024,23.094C54.162,23.404 54.386,23.667 54.67,23.852C54.954,24.037 55.286,24.136 55.625,24.135ZM50.839,25.05C50.526,25.393 50.363,25.846 50.385,26.31C50.407,26.773 50.612,27.209 50.955,27.522C51.299,27.834 51.752,27.997 52.216,27.975C52.679,27.953 53.115,27.748 53.427,27.405L53.46,27.369C54.111,26.654 54.043,25.565 53.329,24.914C52.613,24.265 51.49,24.335 50.839,25.05ZM14.946,21.183C14.295,20.468 13.201,20.427 12.485,21.077C11.769,21.727 11.728,22.846 12.377,23.562C12.542,23.743 12.742,23.887 12.965,23.986C13.189,24.085 13.43,24.136 13.674,24.135C14.013,24.135 14.345,24.037 14.629,23.852C14.913,23.667 15.137,23.404 15.274,23.094C15.412,22.784 15.456,22.441 15.402,22.106C15.348,21.772 15.198,21.46 14.97,21.209L14.946,21.183ZM17.166,27.978C17.505,27.978 17.837,27.879 18.121,27.694C18.405,27.509 18.629,27.245 18.766,26.935C18.903,26.625 18.947,26.282 18.893,25.947C18.839,25.613 18.688,25.301 18.46,25.05L18.427,25.014C17.776,24.299 16.687,24.267 15.971,24.915C15.256,25.566 15.221,26.691 15.872,27.406C16.036,27.586 16.236,27.73 16.459,27.828C16.681,27.927 16.922,27.978 17.166,27.978ZM31.732,61.34C23.423,59.902 17.582,52.872 17.453,44.724L20.917,45.323L16.299,36.763L9.074,43.275L12.559,43.877C12.273,54.743 19.903,64.266 30.898,66.169C39.963,67.736 48.883,63.65 53.624,55.763L49.425,53.239C45.734,59.38 38.788,62.56 31.732,61.34ZM38.433,22.578C29.499,21.035 20.363,25.223 15.697,32.999L19.898,35.521C23.53,29.467 30.644,26.207 37.598,27.407C45.91,28.846 51.748,35.874 51.878,44.022L48.412,43.424L53.032,51.984L60.257,45.471L56.771,44.869C57.056,34.003 49.431,24.481 38.433,22.578Z" fill="#FFFFFF"/>
<path d="M56,12.6C58.513,12.6 60.55,10.563 60.55,8.05C60.55,5.537 58.513,3.5 56,3.5C53.487,3.5 51.45,5.537 51.45,8.05C51.45,10.563 53.487,12.6 56,12.6Z" fill="#FFFFFF"/>
<path d="M64.75,16.1C64.75,14.176 61.571,12.6 57.686,12.6L54.314,12.6C50.429,12.6 47.25,14.176 47.25,16.1L47.25,19.6L64.75,19.6L64.75,16.1Z" fill="#FFFFFF"/>
<path d="M35,12.6C37.513,12.6 39.55,10.563 39.55,8.05C39.55,5.537 37.513,3.5 35,3.5C32.487,3.5 30.45,5.537 30.45,8.05C30.45,10.563 32.487,12.6 35,12.6Z" fill="#FFFFFF"/>
<path d="M43.75,19.6L43.75,16.1C43.75,14.176 40.571,12.6 36.686,12.6L33.314,12.6C29.429,12.6 26.25,14.176 26.25,16.1L26.25,19.6L43.75,19.6Z" fill="#FFFFFF"/>
<path d="M14,12.6C16.513,12.6 18.55,10.563 18.55,8.05C18.55,5.537 16.513,3.5 14,3.5C11.487,3.5 9.45,5.537 9.45,8.05C9.45,10.563 11.487,12.6 14,12.6Z" fill="#FFFFFF"/>
<path d="M22.75,19.6L22.75,16.1C22.75,14.176 19.571,12.6 15.686,12.6L12.314,12.6C8.429,12.6 5.25,14.176 5.25,16.1L5.25,19.6L22.75,19.6ZM22.768,47.783L22.75,47.783L22.75,53.159L31.938,53.159L33.809,48.754L31.289,45.459L38.009,45.459L35.489,48.754L37.362,53.159L46.55,53.159L46.55,47.783L46.531,47.783C46.334,45.304 42.102,43.303 36.945,43.303L35.448,43.303C38.55,42.91 40.95,40.267 40.95,37.059C40.95,33.579 38.13,30.759 34.65,30.759C31.17,30.759 28.35,33.579 28.35,37.059C28.35,40.267 30.75,42.91 33.851,43.303L32.357,43.303C27.198,43.303 22.966,45.304 22.768,47.783Z" fill="#FFFFFF"/>
</svg>
