<svg width="140" height="140" viewBox="0 0 140 140" fill="none" xmlns="http://www.w3.org/2000/svg" xmlns:xlink="http://www.w3.org/1999/xlink">
<path d="M107.188,0L32.812,0C14.691,0 0,14.691 0,32.812L0,107.188C0,125.309 14.691,140 32.812,140L107.188,140C125.309,140 140,125.309 140,107.188L140,32.812C140,14.691 125.309,0 107.188,0Z" fill="#FFFFFF"/>
<path d="M107.188,0L32.812,0C14.691,0 0,14.691 0,32.812L0,107.188C0,125.309 14.691,140 32.812,140L107.188,140C125.309,140 140,125.309 140,107.188L140,32.812C140,14.691 125.309,0 107.188,0Z" fill="#0A66C2"/>
<path d="M101.016,119.046L117.023,119.046C117.603,119.046 118.159,118.816 118.57,118.406C118.98,117.996 119.21,117.44 119.21,116.859L119.219,83.04C119.219,65.363 115.41,51.776 94.753,51.776C86.9,51.484 79.495,55.532 75.499,62.291C75.479,62.324 75.45,62.35 75.414,62.364C75.379,62.378 75.34,62.381 75.303,62.371C75.266,62.361 75.233,62.339 75.21,62.309C75.187,62.278 75.174,62.241 75.173,62.203L75.173,55.595C75.173,55.015 74.943,54.459 74.533,54.048C74.122,53.638 73.566,53.408 72.986,53.408L57.795,53.408C57.215,53.408 56.659,53.638 56.249,54.048C55.838,54.459 55.608,55.015 55.608,55.595L55.608,116.856C55.608,117.436 55.838,117.993 56.249,118.403C56.659,118.813 57.215,119.044 57.795,119.044L73.801,119.044C74.381,119.044 74.938,118.813 75.348,118.403C75.758,117.993 75.989,117.436 75.989,116.856L75.989,86.574C75.989,78.012 77.613,69.719 88.228,69.719C98.693,69.719 98.828,79.517 98.828,87.129L98.828,116.859C98.828,117.439 99.059,117.995 99.469,118.406C99.879,118.816 100.436,119.046 101.016,119.046ZM20.781,32.609C20.781,39.097 26.123,44.436 32.611,44.436C39.098,44.435 44.436,39.093 44.436,32.606C44.435,26.119 39.097,20.781 32.609,20.781C26.12,20.781 20.781,26.121 20.781,32.609ZM24.587,119.046L40.614,119.046C41.194,119.046 41.751,118.816 42.161,118.406C42.571,117.995 42.802,117.439 42.802,116.859L42.802,55.595C42.802,55.015 42.571,54.459 42.161,54.048C41.751,53.638 41.194,53.408 40.614,53.408L24.587,53.408C24.007,53.408 23.45,53.638 23.04,54.048C22.63,54.459 22.399,55.015 22.399,55.595L22.399,116.859C22.399,117.439 22.63,117.995 23.04,118.406C23.45,118.816 24.007,119.046 24.587,119.046Z" fill="#FFFFFF"/>
</svg>
