<svg width="140" height="140" viewBox="0 0 140 140" fill="none" xmlns="http://www.w3.org/2000/svg" xmlns:xlink="http://www.w3.org/1999/xlink">
<path d="M107.188,0L32.812,0C14.691,0 0,14.691 0,32.812L0,107.188C0,125.309 14.691,140 32.812,140L107.188,140C125.309,140 140,125.309 140,107.188L140,32.812C140,14.691 125.309,0 107.188,0Z" fill="#F4F2ED"/>
<path d="M22.77,111.037L40.17,111.037L40.17,68.778L15.313,50.135L15.313,103.58C15.313,107.706 18.656,111.037 22.77,111.037Z" fill="#4285F4"/>
<path d="M99.829,111.037L117.23,111.037C121.357,111.037 124.688,107.693 124.688,103.58L124.688,50.135L99.829,68.778Z" fill="#34A853"/>
<path d="M99.829,36.463L99.829,68.778L124.688,50.135L124.688,40.191C124.688,30.969 114.16,25.711 106.79,31.242Z" fill="#FBBC04"/>
<path d="M40.171,68.778L40.171,36.463L70,58.835L99.829,36.462L99.829,68.778L70,91.15Z" fill="#EA4335"/>
<path d="M15.313,40.191L15.313,50.135L40.17,68.778L40.17,36.463L33.21,31.243C25.827,25.712 15.313,30.97 15.313,40.191Z" fill="#C5221F"/>
</svg>
