<svg width="140" height="140" viewBox="0 0 140 140" fill="none" xmlns="http://www.w3.org/2000/svg" xmlns:xlink="http://www.w3.org/1999/xlink">
<path d="M107.188,0L32.812,0C14.691,0 0,14.691 0,32.812L0,107.188C0,125.309 14.691,140 32.812,140L107.188,140C125.309,140 140,125.309 140,107.188L140,32.812C140,14.691 125.309,0 107.188,0Z" fill="#FFFFFF"/>
<path d="M107.188,0L32.812,0C14.691,0 0,14.691 0,32.812L0,107.188C0,125.309 14.691,140 32.812,140L107.188,140C125.309,140 140,125.309 140,107.188L140,32.812C140,14.691 125.309,0 107.188,0Z" fill="#1D9BF0"/>
<path d="M109.141,49.99C109.201,50.858 109.201,51.726 109.201,52.602C109.201,79.288 88.886,110.065 51.738,110.065L51.738,110.049C40.764,110.065 30.017,106.922 20.781,100.995C22.377,101.187 23.98,101.283 25.588,101.287C34.684,101.294 43.518,98.243 50.671,92.625C46.456,92.545 42.372,91.151 38.989,88.636C35.606,86.122 33.094,82.613 31.803,78.6C34.829,79.184 37.948,79.065 40.92,78.252C31.499,76.349 24.72,68.071 24.72,58.457L24.72,58.201C27.529,59.765 30.672,60.632 33.886,60.728C25.012,54.797 22.277,42.992 27.635,33.762C32.705,40.001 39.032,45.104 46.202,48.739C53.373,52.374 61.229,54.46 69.258,54.861C68.458,51.415 68.576,47.819 69.601,44.433C70.627,41.047 72.523,37.989 75.101,35.566C83.235,27.92 96.028,28.312 103.674,36.442C108.197,35.549 112.534,33.891 116.499,31.539C114.991,36.215 111.836,40.184 107.621,42.708C111.625,42.237 115.534,41.165 119.219,39.529C116.508,43.588 113.096,47.13 109.141,49.99Z" fill="#FFFFFF"/>
</svg>
