<svg width="50" height="44" viewBox="0 0 50 44" fill="none" xmlns="http://www.w3.org/2000/svg" xmlns:xlink="http://www.w3.org/1999/xlink">
<path d="M43.125,5.625L36.628,5.625L33.434,0.834C33.262,0.578 33.031,0.368 32.759,0.222C32.487,0.076 32.183,0 31.875,0L16.875,0C16.567,0 16.263,0.076 15.991,0.222C15.719,0.368 15.488,0.578 15.316,0.834L12.12,5.625L5.625,5.625C4.133,5.625 2.702,6.218 1.648,7.273C0.593,8.327 0,9.758 0,11.25L0,37.5C0,38.992 0.593,40.423 1.648,41.477C2.702,42.532 4.133,43.125 5.625,43.125L43.125,43.125C44.617,43.125 46.048,42.532 47.102,41.477C48.157,40.423 48.75,38.992 48.75,37.5L48.75,11.25C48.75,9.758 48.157,8.327 47.102,7.273C46.048,6.218 44.617,5.625 43.125,5.625ZM45,37.5C45,37.997 44.802,38.474 44.451,38.826C44.099,39.177 43.622,39.375 43.125,39.375L5.625,39.375C5.128,39.375 4.651,39.177 4.299,38.826C3.948,38.474 3.75,37.997 3.75,37.5L3.75,11.25C3.75,10.753 3.948,10.276 4.299,9.924C4.651,9.573 5.128,9.375 5.625,9.375L13.125,9.375C13.434,9.375 13.738,9.299 14.01,9.154C14.282,9.008 14.515,8.797 14.686,8.541L17.878,3.75L30.87,3.75L34.064,8.541C34.235,8.797 34.468,9.008 34.74,9.154C35.012,9.299 35.316,9.375 35.625,9.375L43.125,9.375C43.622,9.375 44.099,9.573 44.451,9.924C44.802,10.276 45,10.753 45,11.25L45,37.5ZM24.375,13.125C22.335,13.125 20.342,13.73 18.646,14.863C16.95,15.996 15.628,17.607 14.847,19.491C14.067,21.375 13.863,23.449 14.261,25.449C14.659,27.45 15.641,29.287 17.083,30.73C18.525,32.172 20.363,33.154 22.363,33.552C24.364,33.95 26.437,33.746 28.321,32.965C30.206,32.184 31.816,30.863 32.95,29.167C34.083,27.471 34.688,25.477 34.688,23.438C34.684,20.703 33.597,18.082 31.664,16.149C29.73,14.216 27.109,13.128 24.375,13.125ZM24.375,30C23.077,30 21.808,29.615 20.729,28.894C19.65,28.173 18.809,27.148 18.312,25.949C17.815,24.75 17.685,23.43 17.939,22.157C18.192,20.884 18.817,19.715 19.735,18.797C20.652,17.879 21.822,17.254 23.095,17.001C24.368,16.748 25.687,16.878 26.886,17.375C28.085,17.871 29.11,18.712 29.832,19.792C30.553,20.871 30.938,22.14 30.938,23.438C30.938,25.178 30.246,26.847 29.015,28.078C27.785,29.309 26.115,30 24.375,30Z" fill="#000000" fill-opacity="0.6"/>
</svg>
