<svg width="68" height="68" viewBox="0 0 68 68" fill="none" xmlns="http://www.w3.org/2000/svg" xmlns:xlink="http://www.w3.org/1999/xlink">
<path d="M34,67.333C29.389,67.333 25.055,66.458 21,64.707C16.944,62.955 13.417,60.581 10.417,57.583C7.417,54.583 5.042,51.055 3.293,47C1.544,42.944 0.669,38.611 0.667,34C0.667,29.389 1.542,25.055 3.293,21C5.044,16.944 7.419,13.417 10.417,10.417C13.417,7.417 16.944,5.042 21,3.293C25.055,1.544 29.389,0.669 34,0.667C38.611,0.667 42.944,1.542 47,3.293C51.055,5.044 54.583,7.419 57.583,10.417C60.583,13.417 62.959,16.944 64.71,21C66.461,25.055 67.335,29.389 67.333,34C67.333,38.611 66.458,42.944 64.707,47C62.955,51.055 60.581,54.583 57.583,57.583C54.583,60.583 51.055,62.959 47,64.71C42.944,66.461 38.611,67.335 34,67.333ZM34,60.667C41.444,60.667 47.75,58.083 52.917,52.917C58.083,47.75 60.667,41.444 60.667,34C60.667,33.611 60.653,33.208 60.627,32.79C60.6,32.372 60.585,32.025 60.583,31.75C60.305,33.361 59.555,34.694 58.333,35.75C57.111,36.805 55.667,37.333 54,37.333L47.333,37.333C45.5,37.333 43.931,36.681 42.627,35.377C41.322,34.072 40.669,32.502 40.667,30.667L40.667,27.333L27.333,27.333L27.333,20.667C27.333,18.833 27.987,17.264 29.293,15.96C30.6,14.656 32.169,14.002 34,14L37.333,14C37.333,12.722 37.681,11.598 38.377,10.627C39.072,9.656 39.919,8.863 40.917,8.25C39.805,7.972 38.681,7.75 37.543,7.583C36.405,7.417 35.224,7.333 34,7.333C26.555,7.333 20.25,9.917 15.083,15.083C9.917,20.25 7.333,26.555 7.333,34L24,34C27.667,34 30.805,35.305 33.417,37.917C36.028,40.528 37.333,43.667 37.333,47.333L37.333,50.667L27.333,50.667L27.333,59.833C28.444,60.111 29.542,60.32 30.627,60.46C31.711,60.6 32.835,60.669 34,60.667Z" fill="#FFFFFF"/>
</svg>
