<svg width="80" height="80" viewBox="0 0 80 80" fill="none" xmlns="http://www.w3.org/2000/svg" xmlns:xlink="http://www.w3.org/1999/xlink">
<path d="M40,0C45.304,0 50.391,2.107 54.142,5.858C57.893,9.609 60,14.696 60,20C60,25.304 57.893,30.391 54.142,34.142C50.391,37.893 45.304,40 40,40C34.696,40 29.609,37.893 25.858,34.142C22.107,30.391 20,25.304 20,20C20,14.696 22.107,9.609 25.858,5.858C29.609,2.107 34.696,0 40,0ZM40,50C62.1,50 80,58.95 80,70L80,80L0,80L0,70C0,58.95 17.9,50 40,50Z" fill="#FFFFFF"/>
</svg>
