<svg width="20" height="34" viewBox="0 0 20 34" fill="none" xmlns="http://www.w3.org/2000/svg" xmlns:xlink="http://www.w3.org/1999/xlink">
<path d="M0.732,18.768C0.264,18.299 0,17.663 0,17C0,16.337 0.264,15.701 0.732,15.233L14.875,1.09C15.106,0.851 15.381,0.661 15.686,0.53C15.991,0.399 16.32,0.33 16.651,0.327C16.983,0.324 17.313,0.387 17.62,0.513C17.927,0.639 18.206,0.824 18.441,1.059C18.676,1.294 18.861,1.573 18.987,1.88C19.113,2.187 19.176,2.517 19.173,2.849C19.17,3.18 19.101,3.509 18.97,3.814C18.839,4.119 18.649,4.394 18.41,4.625L6.035,17L18.41,29.375C18.865,29.847 19.117,30.478 19.112,31.134C19.106,31.789 18.843,32.416 18.38,32.88C17.916,33.343 17.289,33.606 16.633,33.612C15.978,33.617 15.346,33.365 14.875,32.91L0.732,18.768Z" clip-rule="evenodd" fill-rule="evenodd" fill="#000000"/>
</svg>
