<svg width="46" height="38" viewBox="0 0 46 38" fill="none" xmlns="http://www.w3.org/2000/svg" xmlns:xlink="http://www.w3.org/1999/xlink">
<path d="M42,14L43.768,15.767L45.535,14L43.768,12.232L42,14ZM-0.5,34C-0.5,34.663 -0.237,35.299 0.232,35.768C0.701,36.237 1.337,36.5 2,36.5C2.663,36.5 3.299,36.237 3.768,35.768C4.237,35.299 4.5,34.663 4.5,34L-0.5,34ZM31.267,28.267L43.768,15.767L40.232,12.232L27.733,24.732L31.267,28.267ZM43.768,12.232L31.267,-0.268L27.733,3.267L40.232,15.767L43.768,12.232ZM42,11.5L17,11.5L17,16.5L42,16.5L42,11.5ZM-0.5,29L-0.5,34L4.5,34L4.5,29L-0.5,29ZM17,11.5C12.359,11.5 7.908,13.344 4.626,16.626C1.344,19.907 -0.5,24.359 -0.5,29L4.5,29C4.5,25.685 5.817,22.505 8.161,20.161C10.505,17.817 13.685,16.5 17,16.5L17,11.5Z" fill="#000000"/>
</svg>
