<svg width="80" height="82" viewBox="0 0 80 82" fill="none" xmlns="http://www.w3.org/2000/svg" xmlns:xlink="http://www.w3.org/1999/xlink">
<path d="M61.592,28.797L67.48,22.593C74.996,27.161 80,33.475 80,40.471C80,54.438 60.168,65.728 40,65.758C35.896,65.758 31.803,65.306 27.788,64.409L34.776,57.051C36.48,57.236 38.224,57.333 39.988,57.329L39.996,57.329C38.336,57.329 36.736,57.063 35.232,56.57L43.156,48.217C45.036,47.366 46.544,45.777 47.356,43.796L55.276,35.447C56.022,37.964 56.197,40.629 55.787,43.23C55.378,45.831 54.395,48.294 52.918,50.422C51.441,52.55 49.511,54.284 47.282,55.483C45.054,56.683 42.59,57.315 40.088,57.329C57.068,57.266 72,48.124 72,40.471C72,36.497 67.912,32.101 61.592,28.797ZM24.384,44.159C23.86,41.695 23.868,39.138 24.407,36.678C24.946,34.218 26.003,31.917 27.499,29.945C28.995,27.972 30.893,26.38 33.052,25.284C35.211,24.188 37.576,23.617 39.972,23.613C23.1,23.55 8,32.792 8,40.471C8,44.247 11.616,48.381 17.308,51.614L11.476,57.75C4.536,53.232 0,47.151 0,40.471C0,26.504 19.936,15.112 40,15.184C43.656,15.196 47.308,15.58 50.836,16.288L43.728,23.773C42.568,23.68 41.392,23.625 40.208,23.613C41.336,23.63 42.436,23.769 43.5,24.017L24.38,44.159L24.384,44.159ZM76.368,1.305C77.118,2.096 77.539,3.168 77.539,4.285C77.539,5.403 77.118,6.474 76.368,7.265L8.488,78.785C8.119,79.188 7.678,79.509 7.19,79.73C6.702,79.952 6.178,80.068 5.646,80.073C5.115,80.079 4.589,79.972 4.097,79.761C3.605,79.549 3.158,79.237 2.783,78.841C2.407,78.446 2.109,77.976 1.908,77.458C1.706,76.94 1.605,76.385 1.609,75.825C1.613,75.266 1.723,74.713 1.933,74.198C2.142,73.684 2.446,73.219 2.828,72.83L70.708,1.31C71.079,0.918 71.521,0.607 72.006,0.395C72.492,0.183 73.012,0.074 73.538,0.074C74.064,0.074 74.584,0.183 75.07,0.395C75.555,0.607 75.997,0.914 76.368,1.305Z" fill="#000000" fill-opacity="0.6"/>
</svg>
