<svg width="36" height="42" viewBox="0 0 36 42" fill="none" xmlns="http://www.w3.org/2000/svg" xmlns:xlink="http://www.w3.org/1999/xlink">
<path d="M6,14L6,12C6,5.373 11.373,0 18,0C24.627,0 30,5.373 30,12L30,14L34,14C35.105,14 36,14.895 36,16L36,40C36,41.105 35.105,42 34,42L2,42C0.895,42 0,41.105 0,40L0,16C0,14.895 0.895,14 2,14L6,14ZM32,18L4,18L4,38L32,38L32,18ZM16,29.465C14.804,28.773 14,27.481 14,26C14,23.791 15.791,22 18,22C20.209,22 22,23.791 22,26C22,27.481 21.196,28.773 20,29.465L20,34L16,34L16,29.465ZM10,14L26,14L26,12C26,7.582 22.418,4 18,4C13.582,4 10,7.582 10,12L10,14Z" fill="#1C1C1C"/>
</svg>
