<svg width="54" height="54" viewBox="0 0 54 54" fill="none" xmlns="http://www.w3.org/2000/svg" xmlns:xlink="http://www.w3.org/1999/xlink">
<path d="M52.5,0.5L46.25,4L40,0.5L43.5,6.75L40,13L46.25,9.5L52.5,13L49,6.75L52.5,0.5ZM31.65,16.05L36.95,21.35L30.85,27.45L32.875,29.475L39.25,23.1C39.482,22.869 39.666,22.594 39.791,22.292C39.916,21.989 39.981,21.665 39.981,21.337C39.981,21.01 39.916,20.686 39.791,20.383C39.666,20.081 39.482,19.806 39.25,19.575L33.4,13.725C33.169,13.493 32.894,13.309 32.591,13.184C32.289,13.058 31.965,12.994 31.637,12.994C31.31,12.994 30.986,13.058 30.683,13.184C30.381,13.309 30.106,13.493 29.875,13.725L23.5,20.1L25.525,22.125L31.65,16.05ZM29.7,32.675L20.325,23.3L3.175,6.15L0,9.325L17.15,26.475L0.725,42.9C0.493,43.131 0.309,43.406 0.184,43.708C0.058,44.011 -0.006,44.335 -0.006,44.663C-0.006,44.99 0.058,45.314 0.184,45.617C0.309,45.919 0.493,46.194 0.725,46.425L6.575,52.275C7.55,53.25 9.125,53.25 10.1,52.275L26.525,35.85L43.675,53L46.85,49.825L29.7,32.675Z" fill="#000000"/>
</svg>
