<svg width="32" height="42" viewBox="0 0 32 42" fill="none" xmlns="http://www.w3.org/2000/svg" xmlns:xlink="http://www.w3.org/1999/xlink">
<path d="M32,42L28,42L28,38C28,34.686 25.314,32 22,32L10,32C6.686,32 4,34.686 4,38L4,42L0,42L0,38C0,32.477 4.477,28 10,28L22,28C27.523,28 32,32.477 32,38L32,42ZM16,24C9.373,24 4,18.627 4,12C4,5.373 9.373,0 16,0C22.627,0 28,5.373 28,12C28,18.627 22.627,24 16,24ZM16,20C20.418,20 24,16.418 24,12C24,7.582 20.418,4 16,4C11.582,4 8,7.582 8,12C8,16.418 11.582,20 16,20Z" fill="#1C1C1C"/>
</svg>
