<svg width="42" height="46" viewBox="0 0 42 46" fill="none" xmlns="http://www.w3.org/2000/svg" xmlns:xlink="http://www.w3.org/1999/xlink">
<path d="M27.503,42.2C27.603,42.95 27.353,43.75 26.778,44.275C26.546,44.507 26.272,44.691 25.969,44.816C25.667,44.942 25.343,45.006 25.015,45.006C24.688,45.006 24.364,44.942 24.061,44.816C23.759,44.691 23.484,44.507 23.253,44.275L13.228,34.25C12.955,33.983 12.748,33.657 12.622,33.297C12.496,32.938 12.455,32.553 12.503,32.175L12.503,19.375L0.528,4.05C0.122,3.529 -0.061,2.868 0.018,2.212C0.098,1.557 0.434,0.959 0.953,0.55C1.428,0.2 1.953,0 2.503,0L37.503,0C38.053,0 38.578,0.2 39.053,0.55C39.572,0.959 39.908,1.557 39.987,2.212C40.067,2.868 39.884,3.529 39.478,4.05L27.503,19.375L27.503,42.2ZM7.603,5L17.503,17.65L17.503,31.45L22.503,36.45L22.503,17.625L32.403,5L7.603,5Z" fill="#000000" fill-opacity="0.6"/>
</svg>
