<svg width="80" height="82" viewBox="0 0 80 82" fill="none" xmlns="http://www.w3.org/2000/svg" xmlns:xlink="http://www.w3.org/1999/xlink">
<path d="M10,81C7.25,81 4.897,80.255 2.94,78.764C0.983,77.273 0.003,75.479 0,73.381L0,35.286C0,33.19 0.98,31.397 2.94,29.907C4.9,28.416 7.253,27.669 10,27.667L15,27.667L15,20.048C15,14.778 17.438,10.286 22.315,6.573C27.192,2.86 33.087,1.003 40,1C46.917,1 52.813,2.858 57.69,6.573C62.567,10.289 65.003,14.78 65,20.048L65,27.667L70,27.667C72.75,27.667 75.105,28.413 77.065,29.907C79.025,31.4 80.003,33.193 80,35.286L80,73.381C80,75.476 79.022,77.27 77.065,78.764C75.108,80.257 72.753,81.003 70,81L10,81ZM40,61.952C42.75,61.952 45.105,61.207 47.065,59.716C49.025,58.225 50.003,56.431 50,54.333C50,52.238 49.022,50.445 47.065,48.954C45.108,47.463 42.753,46.717 40,46.714C37.25,46.714 34.897,47.461 32.94,48.954C30.983,50.448 30.003,52.241 30,54.333C30,56.429 30.98,58.223 32.94,59.716C34.9,61.21 37.253,61.955 40,61.952ZM25,27.667L55,27.667L55,20.048C55,16.873 53.542,14.175 50.625,11.952C47.708,9.73 44.167,8.619 40,8.619C35.833,8.619 32.292,9.73 29.375,11.952C26.458,14.175 25,16.873 25,20.048L25,27.667Z" fill="#000000" fill-opacity="0.6"/>
</svg>
