<svg width="68" height="54" viewBox="0 0 68 54" fill="none" xmlns="http://www.w3.org/2000/svg" xmlns:xlink="http://www.w3.org/1999/xlink">
<path d="M7.333,52.667C5.5,52.667 3.931,52.015 2.627,50.71C1.322,49.406 0.669,47.836 0.667,46L0.667,6C0.667,4.167 1.32,2.598 2.627,1.293C3.933,-0.011 5.502,-0.664 7.333,-0.667L60.667,-0.667C62.5,-0.667 64.07,-0.013 65.377,1.293C66.683,2.6 67.336,4.169 67.333,6L67.333,46C67.333,47.833 66.681,49.403 65.377,50.71C64.072,52.017 62.502,52.669 60.667,52.667L7.333,52.667ZM34,29.333L60.667,12.667L60.667,6L34,22.667L7.333,6L7.333,12.667L34,29.333Z" fill="#000000" fill-opacity="0.6"/>
</svg>
