<?xml version="1.0" encoding="utf-8"?><!-- Uploaded to: SVG Repo, www.svgrepo.com, Generator: SVG Repo Mixer Tools -->
<svg fill="#000000" width="800px" height="800px" viewBox="0 0 24 24" id="export-left-2" data-name="Flat Color" xmlns="http://www.w3.org/2000/svg" class="icon flat-color"><path id="secondary" d="M13.71,12.29,5.41,4H9A1,1,0,0,0,9,2H3A1,1,0,0,0,2,3V9A1,1,0,0,0,4,9V5.41l8.29,8.3a1,1,0,0,0,1.42,0A1,1,0,0,0,13.71,12.29Z" style="fill: rgb(44, 169, 188);"></path><path id="primary" d="M20,22H4a2,2,0,0,1-2-2V13a1,1,0,0,1,2,0v7H20V4H13a1,1,0,0,1,0-2h7a2,2,0,0,1,2,2V20A2,2,0,0,1,20,22Z" style="fill: rgb(0, 0, 0);"></path></svg>