<svg width="24" height="24" viewBox="0 0 24 24" fill="none" xmlns="http://www.w3.org/2000/svg">
<g clip-path="url(#clip0_1611_132)">
<path d="M5.3999 21.6C4.60425 21.6 3.84119 21.284 3.27858 20.7213C2.71597 20.1587 2.3999 19.3957 2.3999 18.6V5.40002C2.3999 4.60437 2.71597 3.84131 3.27858 3.2787C3.84119 2.71609 4.60425 2.40002 5.3999 2.40002H9.5269C9.79212 2.40002 10.0465 2.50538 10.234 2.69292C10.4215 2.88045 10.5269 3.13481 10.5269 3.40002C10.5302 3.67816 10.4294 3.94749 10.2444 4.15523C10.0594 4.36296 9.80356 4.49413 9.5269 4.52302H5.5269C5.26169 4.52302 5.00733 4.62838 4.8198 4.81592C4.63226 5.00345 4.5269 5.25781 4.5269 5.52302V18.477C4.5269 18.7422 4.63226 18.9966 4.8198 19.1841C5.00733 19.3717 5.26169 19.477 5.5269 19.477H18.3999C18.6651 19.477 18.9195 19.3717 19.107 19.1841C19.2945 18.9966 19.3999 18.7422 19.3999 18.477V14.477C19.442 14.1945 19.5856 13.9371 19.804 13.753C20.0223 13.5689 20.3004 13.4707 20.5859 13.477C20.8511 13.477 21.1055 13.5824 21.293 13.7699C21.4805 13.9575 21.5859 14.2118 21.5859 14.477V18.604C21.5859 19.3997 21.2698 20.1627 20.7072 20.7253C20.1446 21.288 19.3816 21.604 18.5859 21.604L5.3999 21.6ZM15.5749 14.079C15.4488 14.0232 15.3416 13.9318 15.2667 13.8159C15.1917 13.7001 15.1522 13.565 15.1529 13.427V11.082C14.9647 11.0723 14.7763 11.0676 14.5879 11.068C12.6729 11.068 9.2699 11.419 7.9469 13.775C7.88807 13.8827 7.80129 13.9725 7.69569 14.035C7.59009 14.0975 7.4696 14.1303 7.3469 14.13C7.28642 14.1302 7.22619 14.1222 7.1679 14.106C7.02056 14.0645 6.8909 13.9758 6.79879 13.8535C6.70667 13.7312 6.65719 13.5821 6.6579 13.429C6.7244 11.374 7.53498 9.41315 8.9389 7.91102C10.6096 6.3106 12.8364 5.42144 15.1499 5.43102V3.11002C15.149 2.97267 15.1885 2.83809 15.2636 2.72305C15.3386 2.608 15.4458 2.51757 15.5719 2.46302C15.698 2.40995 15.8372 2.39587 15.9714 2.42261C16.1056 2.44934 16.2287 2.51567 16.3249 2.61302L21.3799 7.77302C21.5116 7.90613 21.5854 8.0858 21.5854 8.27302C21.5854 8.46025 21.5116 8.63992 21.3799 8.77302L16.3249 13.932C16.2286 14.0292 16.1056 14.0955 15.9714 14.1224C15.8373 14.1493 15.6982 14.1356 15.5719 14.083L15.5749 14.079ZM15.7259 9.56002C15.8778 9.57874 16.0174 9.65288 16.118 9.76823C16.2186 9.88357 16.273 10.032 16.2709 10.185V11.347L19.2889 8.27002L16.2759 5.19302V6.36002C16.2756 6.52441 16.2106 6.68207 16.095 6.79887C15.9793 6.91566 15.8223 6.98218 15.6579 6.98402C14.7008 6.91845 13.7404 7.04887 12.8354 7.36732C11.9305 7.68576 11.1 8.18553 10.3949 8.83602C9.83298 9.4206 9.39938 10.1161 9.1219 10.878C10.7619 9.91442 12.643 9.43944 14.5439 9.50902C15.2429 9.51002 15.6999 9.56202 15.7239 9.56202L15.7259 9.56002Z" fill="#4285F4"/>
</g>
<defs>
<clipPath id="clip0_1611_132">
<rect width="24" height="24" fill="white"/>
</clipPath>
</defs>
</svg>
