<svg width="24" height="24" viewBox="0 0 24 24" fill="none" xmlns="http://www.w3.org/2000/svg">
<path d="M4.99668 2.00311C4.20366 2.00708 3.44419 2.32358 2.88307 2.88398C2.32196 3.44438 2.00448 4.20345 1.99951 4.99647V19.0035C1.99951 20.6476 3.35258 22.0007 4.99668 22.0007H19.0036C19.7973 21.9967 20.5573 21.6796 21.1185 21.1184C21.6798 20.5572 21.9968 19.7972 22.0008 19.0035V6.99973C22.003 6.73416 21.8997 6.47851 21.7135 6.28911L17.7072 2.28662C17.5841 2.1655 17.4318 2.07821 17.265 2.03333L4.99668 2.00311ZM4.99668 3.99876H6.00203V8.99907C6.00203 9.5471 6.44802 9.99309 6.99983 9.99309H17.0005C17.2641 9.9921 17.5168 9.88713 17.7036 9.70104C17.8904 9.51495 17.9963 9.26274 17.9983 8.99907V5.40847L20.0014 7.41162V19.0035C20.005 19.1355 19.9817 19.2668 19.9329 19.3895C19.884 19.5122 19.8107 19.6237 19.7173 19.7171C19.6239 19.8105 19.5124 19.8838 19.3897 19.9327C19.267 19.9815 19.1356 20.0048 19.0036 20.0012H4.99668C4.86497 20.0043 4.734 19.9806 4.61173 19.9315C4.48947 19.8824 4.37847 19.8091 4.28549 19.7157C4.19251 19.6224 4.11948 19.5111 4.07086 19.3886C4.02224 19.2662 3.99904 19.1352 4.00266 19.0035V4.99647C4.00266 4.42954 4.42597 3.99876 4.99668 3.99876ZM8.0014 3.99876H15.9989V8.00505H8.0014V3.99876ZM6.99983 11.9962C6.8683 11.9967 6.73815 12.0231 6.61683 12.0739C6.4955 12.1246 6.38537 12.1988 6.29271 12.2922C6.20006 12.3856 6.1267 12.4963 6.07682 12.618C6.02695 12.7397 6.00153 12.87 6.00203 13.0016V17.0003C6.00203 17.5522 6.44802 17.9943 6.99983 17.9981H17.0005C17.2648 17.9971 17.518 17.8916 17.7049 17.7047C17.8918 17.5178 17.9973 17.2647 17.9983 17.0003V13.0016C17.9987 12.87 17.9733 12.7397 17.9235 12.618C17.8736 12.4963 17.8002 12.3856 17.7076 12.2922C17.6149 12.1988 17.5048 12.1246 17.3835 12.0739C17.2621 12.0231 17.132 11.9967 17.0005 11.9962H6.99983ZM8.0014 13.9994H15.9989V15.9987H8.0014V13.9994Z" fill="#4285F4"/>
</svg>
