<svg width="78" height="34" viewBox="0 0 78 34" fill="none" xmlns="http://www.w3.org/2000/svg">
<g filter="url(#filter0_d_1629_113)">
<g clip-path="url(#clip0_1629_113)">
<g filter="url(#filter1_d_1629_113)">
<path d="M20.6158 0C17.8821 0 15.2604 1.04871 13.3274 2.91543L7.01894 9.00761C5.08594 10.8743 4 13.4061 4 16.0461C4 21.5435 8.61474 26 14.3073 26C17.041 26 19.6627 24.9512 21.5957 23.0845L25.9593 18.8705C25.9593 18.8705 25.9594 18.8706 25.9593 18.8705L38.6733 6.59239C39.5965 5.70086 40.8486 5.2 42.1542 5.2C44.34 5.2 46.1931 6.57576 46.8356 8.47953L50.8481 4.60457C49.0176 1.83589 45.8079 0 42.1542 0C39.4205 0 36.7989 1.04871 34.8659 2.91543L17.7882 19.4076C16.865 20.2992 15.6129 20.8 14.3073 20.8C11.5886 20.8 9.38461 18.6716 9.38461 16.0461C9.38461 14.7852 9.90325 13.5761 10.8264 12.6845L17.1349 6.59239C18.0581 5.70086 19.3102 5.2 20.6158 5.2C22.8016 5.2 24.6547 6.57582 25.2971 8.47965L29.3098 4.60466C27.4793 1.83595 24.2696 0 20.6158 0Z" fill="white"/>
</g>
<g filter="url(#filter2_d_1629_113)">
<path d="M39.3267 19.4076C38.4035 20.2992 37.1514 20.8 35.8458 20.8C33.6602 20.8 31.8073 19.4246 31.1647 17.5211L27.1522 21.396C28.9828 24.1643 32.1923 26 35.8458 26C38.5795 26 41.2011 24.9512 43.1341 23.0845L60.2118 6.59239C61.135 5.70086 62.3871 5.2 63.6927 5.2C66.4115 5.2 68.6154 7.32839 68.6154 9.95393C68.6154 11.2148 68.0968 12.4239 67.1736 13.3155L60.8651 19.4076C59.9419 20.2992 58.6898 20.8 57.3842 20.8C55.1985 20.8 53.3455 19.4243 52.7029 17.5207L48.6905 21.3957C50.521 24.1642 53.7306 26 57.3842 26C60.1179 26 62.7396 24.9512 64.6726 23.0845L70.981 16.9924C72.914 15.1257 74 12.5939 74 9.95393C74 4.45652 69.3853 0 63.6927 0C60.959 0 58.3373 1.04871 56.4043 2.91543L39.3267 19.4076Z" fill="#F0EDFF" fill-opacity="0.8" shape-rendering="crispEdges"/>
</g>
<g filter="url(#filter3_d_1629_113)">
<g clip-path="url(#clip1_1629_113)">
<g filter="url(#filter4_d_1629_113)">
<path d="M20.6158 0C17.8821 0 15.2604 1.04871 13.3274 2.91543L7.01894 9.00761C5.08594 10.8743 4 13.4061 4 16.0461C4 21.5435 8.61474 26 14.3073 26C17.041 26 19.6627 24.9512 21.5957 23.0845L25.9593 18.8705C25.9593 18.8705 25.9594 18.8706 25.9593 18.8705L38.6733 6.59239C39.5965 5.70086 40.8486 5.2 42.1542 5.2C44.34 5.2 46.1931 6.57576 46.8356 8.47953L50.8481 4.60457C49.0176 1.83589 45.8079 0 42.1542 0C39.4205 0 36.7989 1.04871 34.8659 2.91543L17.7882 19.4076C16.865 20.2992 15.6129 20.8 14.3073 20.8C11.5886 20.8 9.38461 18.6716 9.38461 16.0461C9.38461 14.7852 9.90325 13.5761 10.8264 12.6845L17.1349 6.59239C18.0581 5.70086 19.3102 5.2 20.6158 5.2C22.8016 5.2 24.6547 6.57582 25.2971 8.47965L29.3098 4.60466C27.4793 1.83595 24.2696 0 20.6158 0Z" fill="white"/>
</g>
<g filter="url(#filter5_d_1629_113)">
<path d="M39.3267 19.4076C38.4035 20.2992 37.1514 20.8 35.8458 20.8C33.6602 20.8 31.8073 19.4246 31.1647 17.5211L27.1522 21.396C28.9828 24.1643 32.1923 26 35.8458 26C38.5795 26 41.2011 24.9512 43.1341 23.0845L60.2118 6.59239C61.135 5.70086 62.3871 5.2 63.6927 5.2C66.4115 5.2 68.6154 7.32839 68.6154 9.95393C68.6154 11.2148 68.0968 12.4239 67.1736 13.3155L60.8651 19.4076C59.9419 20.2992 58.6898 20.8 57.3842 20.8C55.1985 20.8 53.3455 19.4243 52.7029 17.5207L48.6905 21.3957C50.521 24.1642 53.7306 26 57.3842 26C60.1179 26 62.7396 24.9512 64.6726 23.0845L70.981 16.9924C72.914 15.1257 74 12.5939 74 9.95393C74 4.45652 69.3853 0 63.6927 0C60.959 0 58.3373 1.04871 56.4043 2.91543L39.3267 19.4076Z" fill="#F0EDFF" fill-opacity="0.8" shape-rendering="crispEdges"/>
</g>
</g>
</g>
</g>
</g>
<defs>
<filter id="filter0_d_1629_113" x="0" y="0" width="78" height="34" filterUnits="userSpaceOnUse" color-interpolation-filters="sRGB">
<feFlood flood-opacity="0" result="BackgroundImageFix"/>
<feColorMatrix in="SourceAlpha" type="matrix" values="0 0 0 0 0 0 0 0 0 0 0 0 0 0 0 0 0 0 127 0" result="hardAlpha"/>
<feOffset dy="4"/>
<feGaussianBlur stdDeviation="2"/>
<feComposite in2="hardAlpha" operator="out"/>
<feColorMatrix type="matrix" values="0 0 0 0 0 0 0 0 0 0 0 0 0 0 0 0 0 0 0.25 0"/>
<feBlend mode="normal" in2="BackgroundImageFix" result="effect1_dropShadow_1629_113"/>
<feBlend mode="normal" in="SourceGraphic" in2="effect1_dropShadow_1629_113" result="shape"/>
</filter>
<filter id="filter1_d_1629_113" x="0" y="0" width="54.8481" height="34" filterUnits="userSpaceOnUse" color-interpolation-filters="sRGB">
<feFlood flood-opacity="0" result="BackgroundImageFix"/>
<feColorMatrix in="SourceAlpha" type="matrix" values="0 0 0 0 0 0 0 0 0 0 0 0 0 0 0 0 0 0 127 0" result="hardAlpha"/>
<feOffset dy="4"/>
<feGaussianBlur stdDeviation="2"/>
<feComposite in2="hardAlpha" operator="out"/>
<feColorMatrix type="matrix" values="0 0 0 0 0 0 0 0 0 0 0 0 0 0 0 0 0 0 0.25 0"/>
<feBlend mode="normal" in2="BackgroundImageFix" result="effect1_dropShadow_1629_113"/>
<feBlend mode="normal" in="SourceGraphic" in2="effect1_dropShadow_1629_113" result="shape"/>
</filter>
<filter id="filter2_d_1629_113" x="23.1522" y="0" width="54.8478" height="34" filterUnits="userSpaceOnUse" color-interpolation-filters="sRGB">
<feFlood flood-opacity="0" result="BackgroundImageFix"/>
<feColorMatrix in="SourceAlpha" type="matrix" values="0 0 0 0 0 0 0 0 0 0 0 0 0 0 0 0 0 0 127 0" result="hardAlpha"/>
<feOffset dy="4"/>
<feGaussianBlur stdDeviation="2"/>
<feComposite in2="hardAlpha" operator="out"/>
<feColorMatrix type="matrix" values="0 0 0 0 0 0 0 0 0 0 0 0 0 0 0 0 0 0 0.25 0"/>
<feBlend mode="normal" in2="BackgroundImageFix" result="effect1_dropShadow_1629_113"/>
<feBlend mode="normal" in="SourceGraphic" in2="effect1_dropShadow_1629_113" result="shape"/>
</filter>
<filter id="filter3_d_1629_113" x="0" y="0" width="78" height="34" filterUnits="userSpaceOnUse" color-interpolation-filters="sRGB">
<feFlood flood-opacity="0" result="BackgroundImageFix"/>
<feColorMatrix in="SourceAlpha" type="matrix" values="0 0 0 0 0 0 0 0 0 0 0 0 0 0 0 0 0 0 127 0" result="hardAlpha"/>
<feOffset dy="4"/>
<feGaussianBlur stdDeviation="2"/>
<feComposite in2="hardAlpha" operator="out"/>
<feColorMatrix type="matrix" values="0 0 0 0 0 0 0 0 0 0 0 0 0 0 0 0 0 0 0.25 0"/>
<feBlend mode="normal" in2="BackgroundImageFix" result="effect1_dropShadow_1629_113"/>
<feBlend mode="normal" in="SourceGraphic" in2="effect1_dropShadow_1629_113" result="shape"/>
</filter>
<filter id="filter4_d_1629_113" x="0" y="0" width="54.8481" height="34" filterUnits="userSpaceOnUse" color-interpolation-filters="sRGB">
<feFlood flood-opacity="0" result="BackgroundImageFix"/>
<feColorMatrix in="SourceAlpha" type="matrix" values="0 0 0 0 0 0 0 0 0 0 0 0 0 0 0 0 0 0 127 0" result="hardAlpha"/>
<feOffset dy="4"/>
<feGaussianBlur stdDeviation="2"/>
<feComposite in2="hardAlpha" operator="out"/>
<feColorMatrix type="matrix" values="0 0 0 0 0 0 0 0 0 0 0 0 0 0 0 0 0 0 0.25 0"/>
<feBlend mode="normal" in2="BackgroundImageFix" result="effect1_dropShadow_1629_113"/>
<feBlend mode="normal" in="SourceGraphic" in2="effect1_dropShadow_1629_113" result="shape"/>
</filter>
<filter id="filter5_d_1629_113" x="23.1522" y="0" width="54.8478" height="34" filterUnits="userSpaceOnUse" color-interpolation-filters="sRGB">
<feFlood flood-opacity="0" result="BackgroundImageFix"/>
<feColorMatrix in="SourceAlpha" type="matrix" values="0 0 0 0 0 0 0 0 0 0 0 0 0 0 0 0 0 0 127 0" result="hardAlpha"/>
<feOffset dy="4"/>
<feGaussianBlur stdDeviation="2"/>
<feComposite in2="hardAlpha" operator="out"/>
<feColorMatrix type="matrix" values="0 0 0 0 0 0 0 0 0 0 0 0 0 0 0 0 0 0 0.25 0"/>
<feBlend mode="normal" in2="BackgroundImageFix" result="effect1_dropShadow_1629_113"/>
<feBlend mode="normal" in="SourceGraphic" in2="effect1_dropShadow_1629_113" result="shape"/>
</filter>
<clipPath id="clip0_1629_113">
<rect x="4" width="70" height="26" rx="10" fill="white"/>
</clipPath>
<clipPath id="clip1_1629_113">
<rect x="4" width="70" height="26" rx="10" fill="white"/>
</clipPath>
</defs>
</svg>
