<?xml version="1.0" encoding="iso-8859-1"?>
<!-- Uploaded to: SVG Repo, www.svgrepo.com, Generator: SVG Repo Mixer Tools -->
<svg fill="#000000" height="800px" width="800px" version="1.1" id="Layer_1" xmlns="http://www.w3.org/2000/svg" xmlns:xlink="http://www.w3.org/1999/xlink" 
	 viewBox="0 0 374.145 374.145" xml:space="preserve">
<g>
	<circle cx="108.75" cy="67.982" r="60"/>
	<path d="M274.715,167.303c-54.826,0-99.43,44.604-99.43,99.429s44.604,99.43,99.43,99.43s99.43-44.604,99.43-99.43
		S329.541,167.303,274.715,167.303z M328.809,299.613l-21.213,21.213l-32.881-32.881l-32.881,32.881l-21.213-21.213l32.881-32.881
		l-32.881-32.881l21.213-21.213l32.881,32.881l32.881-32.881l21.213,21.213l-32.881,32.881L328.809,299.613z"/>
	<path d="M108.75,157.982C48.689,157.982,0,206.671,0,266.732h145.285c0-32.364,11.941-61.991,31.647-84.709
		C158.281,166.99,134.571,157.982,108.75,157.982z"/>
</g>
</svg>